<mxfile host="Electron" agent="Mozilla/5.0 (X11; Linux x86_64) AppleWebKit/537.36 (KHTML, like Gecko) draw.io/26.2.2 Chrome/134.0.6998.178 Electron/35.1.2 Safari/537.36" version="26.2.2" pages="11">
  <diagram name="第 1 页" id="oAh8SK3zv3CVRevmEdwV">
    <mxGraphModel dx="943" dy="1747" grid="1" gridSize="10" guides="1" tooltips="1" connect="1" arrows="1" fold="1" page="1" pageScale="1" pageWidth="827" pageHeight="1169" math="1" shadow="0">
      <root>
        <mxCell id="0" />
        <mxCell id="1" parent="0" />
        <mxCell id="f46LhhW0571pj7Eg3UtB-34" value="&lt;font style=&quot;font-size: 8px;&quot;&gt;$$1$$&lt;/font&gt;" style="text;html=1;align=center;verticalAlign=middle;resizable=0;points=[];autosize=1;strokeColor=none;fillColor=none;" parent="1" vertex="1">
          <mxGeometry x="765" y="113" width="50" height="30" as="geometry" />
        </mxCell>
        <mxCell id="f46LhhW0571pj7Eg3UtB-1" value="" style="endArrow=none;html=1;rounded=0;strokeWidth=2;" parent="1" edge="1">
          <mxGeometry width="50" height="50" relative="1" as="geometry">
            <mxPoint x="713" y="120" as="sourcePoint" />
            <mxPoint x="713" y="40" as="targetPoint" />
          </mxGeometry>
        </mxCell>
        <mxCell id="f46LhhW0571pj7Eg3UtB-2" value="" style="endArrow=none;html=1;rounded=0;strokeWidth=2;" parent="1" edge="1">
          <mxGeometry width="50" height="50" relative="1" as="geometry">
            <mxPoint x="713" y="120" as="sourcePoint" />
            <mxPoint x="793" y="120" as="targetPoint" />
          </mxGeometry>
        </mxCell>
        <mxCell id="f46LhhW0571pj7Eg3UtB-3" value="" style="endArrow=none;html=1;rounded=0;strokeWidth=2;" parent="1" edge="1">
          <mxGeometry width="50" height="50" relative="1" as="geometry">
            <mxPoint x="793" y="120" as="sourcePoint" />
            <mxPoint x="713" y="40" as="targetPoint" />
          </mxGeometry>
        </mxCell>
        <mxCell id="f46LhhW0571pj7Eg3UtB-4" value="" style="endArrow=none;html=1;rounded=0;strokeWidth=2;" parent="1" edge="1">
          <mxGeometry width="50" height="50" relative="1" as="geometry">
            <mxPoint x="480" y="80" as="sourcePoint" />
            <mxPoint x="420" y="30" as="targetPoint" />
          </mxGeometry>
        </mxCell>
        <mxCell id="f46LhhW0571pj7Eg3UtB-5" value="" style="endArrow=none;html=1;rounded=0;strokeWidth=2;" parent="1" edge="1">
          <mxGeometry width="50" height="50" relative="1" as="geometry">
            <mxPoint x="400" y="110" as="sourcePoint" />
            <mxPoint x="420" y="30" as="targetPoint" />
          </mxGeometry>
        </mxCell>
        <mxCell id="f46LhhW0571pj7Eg3UtB-6" value="" style="endArrow=none;html=1;rounded=0;strokeWidth=2;" parent="1" edge="1">
          <mxGeometry width="50" height="50" relative="1" as="geometry">
            <mxPoint x="400" y="110" as="sourcePoint" />
            <mxPoint x="480" y="80" as="targetPoint" />
          </mxGeometry>
        </mxCell>
        <mxCell id="f46LhhW0571pj7Eg3UtB-7" value="" style="endArrow=none;html=1;rounded=0;strokeWidth=2;" parent="1" edge="1">
          <mxGeometry width="50" height="50" relative="1" as="geometry">
            <mxPoint x="713" y="260" as="sourcePoint" />
            <mxPoint x="713" y="180" as="targetPoint" />
          </mxGeometry>
        </mxCell>
        <mxCell id="f46LhhW0571pj7Eg3UtB-8" value="" style="endArrow=none;html=1;rounded=0;strokeWidth=2;" parent="1" edge="1">
          <mxGeometry width="50" height="50" relative="1" as="geometry">
            <mxPoint x="793" y="180" as="sourcePoint" />
            <mxPoint x="713" y="180" as="targetPoint" />
          </mxGeometry>
        </mxCell>
        <mxCell id="f46LhhW0571pj7Eg3UtB-9" value="" style="endArrow=none;html=1;rounded=0;strokeWidth=2;" parent="1" edge="1">
          <mxGeometry width="50" height="50" relative="1" as="geometry">
            <mxPoint x="793" y="260" as="sourcePoint" />
            <mxPoint x="713" y="260" as="targetPoint" />
          </mxGeometry>
        </mxCell>
        <mxCell id="f46LhhW0571pj7Eg3UtB-10" value="" style="endArrow=none;html=1;rounded=0;strokeWidth=2;" parent="1" edge="1">
          <mxGeometry width="50" height="50" relative="1" as="geometry">
            <mxPoint x="793" y="260" as="sourcePoint" />
            <mxPoint x="793" y="180" as="targetPoint" />
          </mxGeometry>
        </mxCell>
        <mxCell id="f46LhhW0571pj7Eg3UtB-11" value="" style="endArrow=none;html=1;rounded=0;strokeWidth=2;" parent="1" edge="1">
          <mxGeometry width="50" height="50" relative="1" as="geometry">
            <mxPoint x="409" y="240" as="sourcePoint" />
            <mxPoint x="399" y="170" as="targetPoint" />
          </mxGeometry>
        </mxCell>
        <mxCell id="f46LhhW0571pj7Eg3UtB-12" value="" style="endArrow=none;html=1;rounded=0;strokeWidth=2;" parent="1" edge="1">
          <mxGeometry width="50" height="50" relative="1" as="geometry">
            <mxPoint x="469" y="190" as="sourcePoint" />
            <mxPoint x="399" y="170" as="targetPoint" />
          </mxGeometry>
        </mxCell>
        <mxCell id="f46LhhW0571pj7Eg3UtB-13" value="" style="endArrow=none;html=1;rounded=0;strokeWidth=2;" parent="1" edge="1">
          <mxGeometry width="50" height="50" relative="1" as="geometry">
            <mxPoint x="479" y="250" as="sourcePoint" />
            <mxPoint x="409" y="240" as="targetPoint" />
          </mxGeometry>
        </mxCell>
        <mxCell id="f46LhhW0571pj7Eg3UtB-14" value="" style="endArrow=none;html=1;rounded=0;strokeWidth=2;" parent="1" edge="1">
          <mxGeometry width="50" height="50" relative="1" as="geometry">
            <mxPoint x="479" y="250" as="sourcePoint" />
            <mxPoint x="469" y="190" as="targetPoint" />
          </mxGeometry>
        </mxCell>
        <mxCell id="f46LhhW0571pj7Eg3UtB-15" value="" style="shape=flexArrow;endArrow=classic;html=1;rounded=0;" parent="1" edge="1">
          <mxGeometry width="50" height="50" relative="1" as="geometry">
            <mxPoint x="600" y="70" as="sourcePoint" />
            <mxPoint x="640" y="70" as="targetPoint" />
          </mxGeometry>
        </mxCell>
        <mxCell id="f46LhhW0571pj7Eg3UtB-16" value="" style="shape=flexArrow;endArrow=classic;html=1;rounded=0;" parent="1" edge="1">
          <mxGeometry width="50" height="50" relative="1" as="geometry">
            <mxPoint x="600" y="220" as="sourcePoint" />
            <mxPoint x="640" y="220" as="targetPoint" />
          </mxGeometry>
        </mxCell>
        <mxCell id="f46LhhW0571pj7Eg3UtB-31" value="" style="endArrow=classic;html=1;rounded=0;" parent="1" edge="1">
          <mxGeometry width="50" height="50" relative="1" as="geometry">
            <mxPoint x="693" y="120" as="sourcePoint" />
            <mxPoint x="813" y="120" as="targetPoint" />
          </mxGeometry>
        </mxCell>
        <mxCell id="f46LhhW0571pj7Eg3UtB-32" value="" style="endArrow=classic;html=1;rounded=0;" parent="1" edge="1">
          <mxGeometry width="50" height="50" relative="1" as="geometry">
            <mxPoint x="713" y="140" as="sourcePoint" />
            <mxPoint x="713" y="20" as="targetPoint" />
          </mxGeometry>
        </mxCell>
        <mxCell id="f46LhhW0571pj7Eg3UtB-33" value="&lt;font style=&quot;font-size: 8px;&quot;&gt;$$O$$&lt;/font&gt;" style="text;html=1;align=center;verticalAlign=middle;resizable=0;points=[];autosize=1;strokeColor=none;fillColor=none;" parent="1" vertex="1">
          <mxGeometry x="680" y="113" width="50" height="30" as="geometry" />
        </mxCell>
        <mxCell id="f46LhhW0571pj7Eg3UtB-35" value="&lt;font style=&quot;font-size: 8px;&quot;&gt;$$1$$&lt;/font&gt;" style="text;html=1;align=center;verticalAlign=middle;resizable=0;points=[];autosize=1;strokeColor=none;fillColor=none;" parent="1" vertex="1">
          <mxGeometry x="683" y="26" width="50" height="30" as="geometry" />
        </mxCell>
        <mxCell id="f46LhhW0571pj7Eg3UtB-36" value="" style="endArrow=classic;html=1;rounded=0;" parent="1" edge="1">
          <mxGeometry width="50" height="50" relative="1" as="geometry">
            <mxPoint x="693" y="220" as="sourcePoint" />
            <mxPoint x="813" y="220" as="targetPoint" />
          </mxGeometry>
        </mxCell>
        <mxCell id="f46LhhW0571pj7Eg3UtB-37" value="" style="endArrow=classic;html=1;rounded=0;" parent="1" edge="1">
          <mxGeometry width="50" height="50" relative="1" as="geometry">
            <mxPoint x="753" y="280" as="sourcePoint" />
            <mxPoint x="753" y="160" as="targetPoint" />
          </mxGeometry>
        </mxCell>
        <mxCell id="f46LhhW0571pj7Eg3UtB-38" value="&lt;font style=&quot;font-size: 8px;&quot;&gt;$$O$$&lt;/font&gt;" style="text;html=1;align=center;verticalAlign=middle;resizable=0;points=[];autosize=1;strokeColor=none;fillColor=none;" parent="1" vertex="1">
          <mxGeometry x="722" y="212" width="50" height="30" as="geometry" />
        </mxCell>
        <mxCell id="f46LhhW0571pj7Eg3UtB-39" value="&lt;font style=&quot;font-size: 8px;&quot;&gt;$$1$$&lt;/font&gt;" style="text;html=1;align=center;verticalAlign=middle;resizable=0;points=[];autosize=1;strokeColor=none;fillColor=none;" parent="1" vertex="1">
          <mxGeometry x="763" y="211" width="50" height="30" as="geometry" />
        </mxCell>
        <mxCell id="f46LhhW0571pj7Eg3UtB-40" value="&lt;font style=&quot;font-size: 8px;&quot;&gt;$$-1$$&lt;/font&gt;" style="text;html=1;align=center;verticalAlign=middle;resizable=0;points=[];autosize=1;strokeColor=none;fillColor=none;" parent="1" vertex="1">
          <mxGeometry x="720" y="252" width="50" height="30" as="geometry" />
        </mxCell>
        <mxCell id="f46LhhW0571pj7Eg3UtB-41" value="&lt;font style=&quot;font-size: 8px;&quot;&gt;$$-1$$&lt;/font&gt;" style="text;html=1;align=center;verticalAlign=middle;resizable=0;points=[];autosize=1;strokeColor=none;fillColor=none;" parent="1" vertex="1">
          <mxGeometry x="680" y="211" width="50" height="30" as="geometry" />
        </mxCell>
        <mxCell id="f46LhhW0571pj7Eg3UtB-42" value="&lt;font style=&quot;font-size: 8px;&quot;&gt;$$1$$&lt;/font&gt;" style="text;html=1;align=center;verticalAlign=middle;resizable=0;points=[];autosize=1;strokeColor=none;fillColor=none;" parent="1" vertex="1">
          <mxGeometry x="722" y="173" width="50" height="30" as="geometry" />
        </mxCell>
        <mxCell id="slv0YSNYsGsZu_BOSTyg-3" value="&lt;font style=&quot;font-size: 10px;&quot;&gt;$$\xi$$&lt;/font&gt;" style="text;html=1;align=center;verticalAlign=middle;resizable=0;points=[];autosize=1;strokeColor=none;fillColor=none;" parent="1" vertex="1">
          <mxGeometry x="782" y="214" width="60" height="30" as="geometry" />
        </mxCell>
        <mxCell id="slv0YSNYsGsZu_BOSTyg-4" value="&lt;font style=&quot;font-size: 10px;&quot;&gt;$$\xi$$&lt;/font&gt;" style="text;html=1;align=center;verticalAlign=middle;resizable=0;points=[];autosize=1;strokeColor=none;fillColor=none;" parent="1" vertex="1">
          <mxGeometry x="782" y="113" width="60" height="30" as="geometry" />
        </mxCell>
        <mxCell id="slv0YSNYsGsZu_BOSTyg-5" value="&lt;font style=&quot;font-size: 10px;&quot;&gt;$$\eta$$&lt;/font&gt;" style="text;html=1;align=center;verticalAlign=middle;resizable=0;points=[];autosize=1;strokeColor=none;fillColor=none;" parent="1" vertex="1">
          <mxGeometry x="730" y="143" width="60" height="30" as="geometry" />
        </mxCell>
        <mxCell id="slv0YSNYsGsZu_BOSTyg-6" value="&lt;font style=&quot;font-size: 10px;&quot;&gt;$$\eta$$&lt;/font&gt;" style="text;html=1;align=center;verticalAlign=middle;resizable=0;points=[];autosize=1;strokeColor=none;fillColor=none;" parent="1" vertex="1">
          <mxGeometry x="688" width="60" height="30" as="geometry" />
        </mxCell>
        <mxCell id="jsena1reHzsZEoWSvXEt-1" value="" style="endArrow=classic;html=1;rounded=0;" edge="1" parent="1">
          <mxGeometry width="50" height="50" relative="1" as="geometry">
            <mxPoint x="360" y="270" as="sourcePoint" />
            <mxPoint x="540" y="270" as="targetPoint" />
          </mxGeometry>
        </mxCell>
        <mxCell id="jsena1reHzsZEoWSvXEt-2" value="" style="endArrow=classic;html=1;rounded=0;" edge="1" parent="1">
          <mxGeometry width="50" height="50" relative="1" as="geometry">
            <mxPoint x="360" y="270" as="sourcePoint" />
            <mxPoint x="360" y="150" as="targetPoint" />
          </mxGeometry>
        </mxCell>
        <mxCell id="jsena1reHzsZEoWSvXEt-3" value="$$x$$" style="text;html=1;align=center;verticalAlign=middle;resizable=0;points=[];autosize=1;strokeColor=none;fillColor=none;" vertex="1" parent="1">
          <mxGeometry x="509" y="264" width="60" height="30" as="geometry" />
        </mxCell>
        <mxCell id="jsena1reHzsZEoWSvXEt-4" value="$$y$$" style="text;html=1;align=center;verticalAlign=middle;resizable=0;points=[];autosize=1;strokeColor=none;fillColor=none;" vertex="1" parent="1">
          <mxGeometry x="320" y="136" width="60" height="30" as="geometry" />
        </mxCell>
        <mxCell id="jsena1reHzsZEoWSvXEt-5" value="" style="endArrow=classic;html=1;rounded=0;" edge="1" parent="1">
          <mxGeometry width="50" height="50" relative="1" as="geometry">
            <mxPoint x="360" y="126" as="sourcePoint" />
            <mxPoint x="540" y="126" as="targetPoint" />
          </mxGeometry>
        </mxCell>
        <mxCell id="jsena1reHzsZEoWSvXEt-6" value="" style="endArrow=classic;html=1;rounded=0;" edge="1" parent="1">
          <mxGeometry width="50" height="50" relative="1" as="geometry">
            <mxPoint x="360" y="126" as="sourcePoint" />
            <mxPoint x="360" y="6" as="targetPoint" />
          </mxGeometry>
        </mxCell>
        <mxCell id="jsena1reHzsZEoWSvXEt-7" value="$$x$$" style="text;html=1;align=center;verticalAlign=middle;resizable=0;points=[];autosize=1;strokeColor=none;fillColor=none;" vertex="1" parent="1">
          <mxGeometry x="509" y="120" width="60" height="30" as="geometry" />
        </mxCell>
        <mxCell id="jsena1reHzsZEoWSvXEt-8" value="$$y$$" style="text;html=1;align=center;verticalAlign=middle;resizable=0;points=[];autosize=1;strokeColor=none;fillColor=none;" vertex="1" parent="1">
          <mxGeometry x="320" y="-8" width="60" height="30" as="geometry" />
        </mxCell>
      </root>
    </mxGraphModel>
  </diagram>
  <diagram id="dzeECAowBCeOZWF5Bk35" name="第 2 页">
    <mxGraphModel dx="782" dy="1648" grid="1" gridSize="10" guides="1" tooltips="1" connect="1" arrows="1" fold="1" page="1" pageScale="1" pageWidth="827" pageHeight="1169" math="1" shadow="0">
      <root>
        <mxCell id="0" />
        <mxCell id="1" parent="0" />
        <mxCell id="9GjbV4WGcDYSdjLkIqVO-1" value="&lt;font&gt;$$1$$&lt;/font&gt;" style="text;html=1;align=center;verticalAlign=middle;resizable=0;points=[];autosize=1;strokeColor=none;fillColor=none;" vertex="1" parent="1">
          <mxGeometry x="330" y="237" width="60" height="30" as="geometry" />
        </mxCell>
        <mxCell id="9GjbV4WGcDYSdjLkIqVO-12" value="&lt;font&gt;$$\xi$$&lt;/font&gt;" style="text;html=1;align=center;verticalAlign=middle;resizable=0;points=[];autosize=1;strokeColor=none;fillColor=none;" vertex="1" parent="1">
          <mxGeometry x="405" y="237" width="60" height="30" as="geometry" />
        </mxCell>
        <mxCell id="9GjbV4WGcDYSdjLkIqVO-2" value="$$N_{2}$$" style="text;html=1;align=center;verticalAlign=middle;resizable=0;points=[];autosize=1;strokeColor=none;fillColor=none;" vertex="1" parent="1">
          <mxGeometry x="328" y="214" width="80" height="30" as="geometry" />
        </mxCell>
        <mxCell id="9GjbV4WGcDYSdjLkIqVO-7" value="$$N_{3}$$" style="text;html=1;align=center;verticalAlign=middle;resizable=0;points=[];autosize=1;strokeColor=none;fillColor=none;" vertex="1" parent="1">
          <mxGeometry x="134" y="20" width="80" height="30" as="geometry" />
        </mxCell>
        <mxCell id="9GjbV4WGcDYSdjLkIqVO-11" value="&lt;font&gt;$$1$$&lt;/font&gt;" style="text;html=1;align=center;verticalAlign=middle;resizable=0;points=[];autosize=1;strokeColor=none;fillColor=none;" vertex="1" parent="1">
          <mxGeometry x="118" y="25" width="60" height="30" as="geometry" />
        </mxCell>
        <mxCell id="9GjbV4WGcDYSdjLkIqVO-3" value="$$N_{1}$$" style="text;html=1;align=center;verticalAlign=middle;resizable=0;points=[];autosize=1;strokeColor=none;fillColor=none;" vertex="1" parent="1">
          <mxGeometry x="108" y="214" width="80" height="30" as="geometry" />
        </mxCell>
        <mxCell id="9GjbV4WGcDYSdjLkIqVO-10" value="&lt;font&gt;$$O$$&lt;/font&gt;" style="text;html=1;align=center;verticalAlign=middle;resizable=0;points=[];autosize=1;strokeColor=none;fillColor=none;" vertex="1" parent="1">
          <mxGeometry x="118" y="237" width="60" height="30" as="geometry" />
        </mxCell>
        <mxCell id="9GjbV4WGcDYSdjLkIqVO-4" value="" style="endArrow=none;html=1;rounded=0;strokeWidth=2;" edge="1" parent="1">
          <mxGeometry width="50" height="50" relative="1" as="geometry">
            <mxPoint x="160" y="240" as="sourcePoint" />
            <mxPoint x="160" y="40" as="targetPoint" />
          </mxGeometry>
        </mxCell>
        <mxCell id="9GjbV4WGcDYSdjLkIqVO-5" value="" style="endArrow=none;html=1;rounded=0;strokeWidth=2;" edge="1" parent="1">
          <mxGeometry width="50" height="50" relative="1" as="geometry">
            <mxPoint x="160" y="240" as="sourcePoint" />
            <mxPoint x="360" y="240" as="targetPoint" />
          </mxGeometry>
        </mxCell>
        <mxCell id="9GjbV4WGcDYSdjLkIqVO-6" value="" style="endArrow=none;html=1;rounded=0;strokeWidth=2;" edge="1" parent="1">
          <mxGeometry width="50" height="50" relative="1" as="geometry">
            <mxPoint x="360" y="240" as="sourcePoint" />
            <mxPoint x="160" y="40" as="targetPoint" />
          </mxGeometry>
        </mxCell>
        <mxCell id="9GjbV4WGcDYSdjLkIqVO-8" value="" style="endArrow=classic;html=1;rounded=0;" edge="1" parent="1">
          <mxGeometry width="50" height="50" relative="1" as="geometry">
            <mxPoint x="120" y="240" as="sourcePoint" />
            <mxPoint x="440" y="240" as="targetPoint" />
          </mxGeometry>
        </mxCell>
        <mxCell id="9GjbV4WGcDYSdjLkIqVO-9" value="" style="endArrow=classic;html=1;rounded=0;" edge="1" parent="1">
          <mxGeometry width="50" height="50" relative="1" as="geometry">
            <mxPoint x="160" y="280" as="sourcePoint" />
            <mxPoint x="160" y="-40" as="targetPoint" />
          </mxGeometry>
        </mxCell>
        <mxCell id="9GjbV4WGcDYSdjLkIqVO-13" value="&lt;font&gt;$$\eta$$&lt;/font&gt;" style="text;html=1;align=center;verticalAlign=middle;resizable=0;points=[];autosize=1;strokeColor=none;fillColor=none;" vertex="1" parent="1">
          <mxGeometry x="113" y="-50" width="70" height="30" as="geometry" />
        </mxCell>
        <mxCell id="0u_edHY2UAYXanNn2lc8-1" value="" style="shape=waypoint;sketch=0;fillStyle=solid;size=6;pointerEvents=1;points=[];fillColor=none;resizable=0;rotatable=0;perimeter=centerPerimeter;snapToPoint=1;" vertex="1" parent="1">
          <mxGeometry x="150" y="30" width="20" height="20" as="geometry" />
        </mxCell>
        <mxCell id="0u_edHY2UAYXanNn2lc8-4" value="" style="shape=waypoint;sketch=0;fillStyle=solid;size=6;pointerEvents=1;points=[];fillColor=none;resizable=0;rotatable=0;perimeter=centerPerimeter;snapToPoint=1;" vertex="1" parent="1">
          <mxGeometry x="150" y="230" width="20" height="20" as="geometry" />
        </mxCell>
        <mxCell id="0u_edHY2UAYXanNn2lc8-6" value="" style="shape=waypoint;sketch=0;fillStyle=solid;size=6;pointerEvents=1;points=[];fillColor=none;resizable=0;rotatable=0;perimeter=centerPerimeter;snapToPoint=1;" vertex="1" parent="1">
          <mxGeometry x="350" y="230" width="20" height="20" as="geometry" />
        </mxCell>
        <mxCell id="I65E11rvLY5WotyUuRkl-1" value="&lt;font style=&quot;font-size: 16px;&quot;&gt;$$N_{1}=1-\xi-\eta$$&lt;/font&gt;" style="text;html=1;align=left;verticalAlign=middle;resizable=0;points=[];autosize=1;strokeColor=none;fillColor=none;" vertex="1" parent="1">
          <mxGeometry x="440" y="90" width="170" height="30" as="geometry" />
        </mxCell>
        <mxCell id="I65E11rvLY5WotyUuRkl-2" value="&lt;font style=&quot;font-size: 16px;&quot;&gt;$$N_{2}=\xi$$&lt;/font&gt;" style="text;html=1;align=left;verticalAlign=middle;resizable=0;points=[];autosize=1;strokeColor=none;fillColor=none;" vertex="1" parent="1">
          <mxGeometry x="440" y="120" width="120" height="30" as="geometry" />
        </mxCell>
        <mxCell id="I65E11rvLY5WotyUuRkl-3" value="&lt;font style=&quot;font-size: 16px;&quot;&gt;$$N_{3}=\eta$$&lt;/font&gt;" style="text;html=1;align=left;verticalAlign=middle;resizable=0;points=[];autosize=1;strokeColor=none;fillColor=none;" vertex="1" parent="1">
          <mxGeometry x="440" y="150" width="140" height="30" as="geometry" />
        </mxCell>
      </root>
    </mxGraphModel>
  </diagram>
  <diagram id="9KU8sb28-A7Sx6FXKlny" name="第 3 页">
    <mxGraphModel dx="943" dy="1747" grid="1" gridSize="10" guides="1" tooltips="1" connect="1" arrows="1" fold="1" page="1" pageScale="1" pageWidth="827" pageHeight="1169" math="1" shadow="0">
      <root>
        <mxCell id="0" />
        <mxCell id="1" parent="0" />
        <mxCell id="ldod6knxvt-S8UyPqXdz-1" value="&lt;font&gt;$$1$$&lt;/font&gt;" style="text;html=1;align=center;verticalAlign=middle;resizable=0;points=[];autosize=1;strokeColor=none;fillColor=none;" vertex="1" parent="1">
          <mxGeometry x="728" y="237" width="60" height="30" as="geometry" />
        </mxCell>
        <mxCell id="ldod6knxvt-S8UyPqXdz-2" value="&lt;font&gt;$$\xi$$&lt;/font&gt;" style="text;html=1;align=center;verticalAlign=middle;resizable=0;points=[];autosize=1;strokeColor=none;fillColor=none;" vertex="1" parent="1">
          <mxGeometry x="805" y="237" width="60" height="30" as="geometry" />
        </mxCell>
        <mxCell id="ldod6knxvt-S8UyPqXdz-3" value="$$N_{2}$$" style="text;html=1;align=center;verticalAlign=middle;resizable=0;points=[];autosize=1;strokeColor=none;fillColor=none;" vertex="1" parent="1">
          <mxGeometry x="728" y="214" width="80" height="30" as="geometry" />
        </mxCell>
        <mxCell id="ldod6knxvt-S8UyPqXdz-4" value="$$N_{3}$$" style="text;html=1;align=center;verticalAlign=middle;resizable=0;points=[];autosize=1;strokeColor=none;fillColor=none;" vertex="1" parent="1">
          <mxGeometry x="534" y="19" width="80" height="30" as="geometry" />
        </mxCell>
        <mxCell id="ldod6knxvt-S8UyPqXdz-5" value="&lt;font&gt;$$1$$&lt;/font&gt;" style="text;html=1;align=center;verticalAlign=middle;resizable=0;points=[];autosize=1;strokeColor=none;fillColor=none;" vertex="1" parent="1">
          <mxGeometry x="519" y="25" width="60" height="30" as="geometry" />
        </mxCell>
        <mxCell id="ldod6knxvt-S8UyPqXdz-6" value="$$N_{1}$$" style="text;html=1;align=center;verticalAlign=middle;resizable=0;points=[];autosize=1;strokeColor=none;fillColor=none;" vertex="1" parent="1">
          <mxGeometry x="508" y="214" width="80" height="30" as="geometry" />
        </mxCell>
        <mxCell id="ldod6knxvt-S8UyPqXdz-7" value="&lt;font&gt;$$O$$&lt;/font&gt;" style="text;html=1;align=center;verticalAlign=middle;resizable=0;points=[];autosize=1;strokeColor=none;fillColor=none;" vertex="1" parent="1">
          <mxGeometry x="519" y="237" width="60" height="30" as="geometry" />
        </mxCell>
        <mxCell id="ldod6knxvt-S8UyPqXdz-8" value="" style="endArrow=none;html=1;rounded=0;strokeWidth=2;" edge="1" parent="1">
          <mxGeometry width="50" height="50" relative="1" as="geometry">
            <mxPoint x="560" y="240" as="sourcePoint" />
            <mxPoint x="560" y="40" as="targetPoint" />
          </mxGeometry>
        </mxCell>
        <mxCell id="ldod6knxvt-S8UyPqXdz-9" value="" style="endArrow=none;html=1;rounded=0;strokeWidth=2;" edge="1" parent="1">
          <mxGeometry width="50" height="50" relative="1" as="geometry">
            <mxPoint x="560" y="240" as="sourcePoint" />
            <mxPoint x="760" y="240" as="targetPoint" />
          </mxGeometry>
        </mxCell>
        <mxCell id="ldod6knxvt-S8UyPqXdz-10" value="" style="endArrow=none;html=1;rounded=0;strokeWidth=2;" edge="1" parent="1">
          <mxGeometry width="50" height="50" relative="1" as="geometry">
            <mxPoint x="760" y="240" as="sourcePoint" />
            <mxPoint x="560" y="40" as="targetPoint" />
          </mxGeometry>
        </mxCell>
        <mxCell id="ldod6knxvt-S8UyPqXdz-11" value="" style="endArrow=classic;html=1;rounded=0;" edge="1" parent="1">
          <mxGeometry width="50" height="50" relative="1" as="geometry">
            <mxPoint x="520" y="240" as="sourcePoint" />
            <mxPoint x="840" y="240" as="targetPoint" />
          </mxGeometry>
        </mxCell>
        <mxCell id="ldod6knxvt-S8UyPqXdz-12" value="" style="endArrow=classic;html=1;rounded=0;" edge="1" parent="1">
          <mxGeometry width="50" height="50" relative="1" as="geometry">
            <mxPoint x="560" y="280" as="sourcePoint" />
            <mxPoint x="560" y="-40" as="targetPoint" />
          </mxGeometry>
        </mxCell>
        <mxCell id="ldod6knxvt-S8UyPqXdz-13" value="&lt;font&gt;$$\eta$$&lt;/font&gt;" style="text;html=1;align=center;verticalAlign=middle;resizable=0;points=[];autosize=1;strokeColor=none;fillColor=none;" vertex="1" parent="1">
          <mxGeometry x="513" y="-50" width="70" height="30" as="geometry" />
        </mxCell>
        <mxCell id="ldod6knxvt-S8UyPqXdz-14" value="" style="shape=waypoint;sketch=0;fillStyle=solid;size=6;pointerEvents=1;points=[];fillColor=none;resizable=0;rotatable=0;perimeter=centerPerimeter;snapToPoint=1;" vertex="1" parent="1">
          <mxGeometry x="550" y="30" width="20" height="20" as="geometry" />
        </mxCell>
        <mxCell id="ldod6knxvt-S8UyPqXdz-15" value="" style="shape=waypoint;sketch=0;fillStyle=solid;size=6;pointerEvents=1;points=[];fillColor=none;resizable=0;rotatable=0;perimeter=centerPerimeter;snapToPoint=1;" vertex="1" parent="1">
          <mxGeometry x="550" y="230" width="20" height="20" as="geometry" />
        </mxCell>
        <mxCell id="ldod6knxvt-S8UyPqXdz-16" value="" style="shape=waypoint;sketch=0;fillStyle=solid;size=6;pointerEvents=1;points=[];fillColor=none;resizable=0;rotatable=0;perimeter=centerPerimeter;snapToPoint=1;" vertex="1" parent="1">
          <mxGeometry x="750" y="230" width="20" height="20" as="geometry" />
        </mxCell>
        <mxCell id="ldod6knxvt-S8UyPqXdz-17" value="" style="shape=waypoint;sketch=0;fillStyle=solid;size=6;pointerEvents=1;points=[];fillColor=none;resizable=0;rotatable=0;perimeter=centerPerimeter;snapToPoint=1;" vertex="1" parent="1">
          <mxGeometry x="650" y="230" width="20" height="20" as="geometry" />
        </mxCell>
        <mxCell id="ldod6knxvt-S8UyPqXdz-18" value="" style="shape=waypoint;sketch=0;fillStyle=solid;size=6;pointerEvents=1;points=[];fillColor=none;resizable=0;rotatable=0;perimeter=centerPerimeter;snapToPoint=1;" vertex="1" parent="1">
          <mxGeometry x="550" y="130" width="20" height="20" as="geometry" />
        </mxCell>
        <mxCell id="ldod6knxvt-S8UyPqXdz-19" value="" style="shape=waypoint;sketch=0;fillStyle=solid;size=6;pointerEvents=1;points=[];fillColor=none;resizable=0;rotatable=0;perimeter=centerPerimeter;snapToPoint=1;" vertex="1" parent="1">
          <mxGeometry x="650" y="130" width="20" height="20" as="geometry" />
        </mxCell>
        <mxCell id="ldod6knxvt-S8UyPqXdz-20" value="$$N_{5}$$" style="text;html=1;align=center;verticalAlign=middle;resizable=0;points=[];autosize=1;strokeColor=none;fillColor=none;" vertex="1" parent="1">
          <mxGeometry x="635" y="125" width="80" height="30" as="geometry" />
        </mxCell>
        <mxCell id="ldod6knxvt-S8UyPqXdz-21" value="$$N_{6}$$" style="text;html=1;align=center;verticalAlign=middle;resizable=0;points=[];autosize=1;strokeColor=none;fillColor=none;" vertex="1" parent="1">
          <mxGeometry x="508" y="125" width="80" height="30" as="geometry" />
        </mxCell>
        <mxCell id="ldod6knxvt-S8UyPqXdz-22" value="$$N_{4}$$" style="text;html=1;align=center;verticalAlign=middle;resizable=0;points=[];autosize=1;strokeColor=none;fillColor=none;" vertex="1" parent="1">
          <mxGeometry x="620" y="237" width="80" height="30" as="geometry" />
        </mxCell>
        <mxCell id="Re7V09sa3SsQgjzcxP_y-1" value="&lt;font style=&quot;font-size: 16px;&quot;&gt;$$N_{1}=(1-\xi-\eta)(1-2\xi-2\eta)$$&lt;/font&gt;" style="text;html=1;align=left;verticalAlign=middle;resizable=0;points=[];autosize=1;strokeColor=none;fillColor=none;" vertex="1" parent="1">
          <mxGeometry x="880" y="49" width="270" height="30" as="geometry" />
        </mxCell>
        <mxCell id="Re7V09sa3SsQgjzcxP_y-2" value="&lt;font style=&quot;font-size: 16px;&quot;&gt;$$N_{2}=\xi(2\xi-1)$$&lt;/font&gt;" style="text;html=1;align=left;verticalAlign=middle;resizable=0;points=[];autosize=1;strokeColor=none;fillColor=none;" vertex="1" parent="1">
          <mxGeometry x="880" y="79" width="170" height="30" as="geometry" />
        </mxCell>
        <mxCell id="Re7V09sa3SsQgjzcxP_y-3" value="&lt;font style=&quot;font-size: 16px;&quot;&gt;$$N_{3}=\eta(2\eta-1)$$&lt;/font&gt;" style="text;html=1;align=left;verticalAlign=middle;resizable=0;points=[];autosize=1;strokeColor=none;fillColor=none;" vertex="1" parent="1">
          <mxGeometry x="880" y="109" width="200" height="30" as="geometry" />
        </mxCell>
        <mxCell id="2nDnPOnNq4007fujVJRt-2" value="&lt;font style=&quot;font-size: 16px;&quot;&gt;$$N_{4}=4\xi(1-\xi-\eta)$$&lt;/font&gt;" style="text;html=1;align=left;verticalAlign=middle;resizable=0;points=[];autosize=1;strokeColor=none;fillColor=none;" vertex="1" parent="1">
          <mxGeometry x="880" y="139" width="210" height="30" as="geometry" />
        </mxCell>
        <mxCell id="2nDnPOnNq4007fujVJRt-3" value="&lt;font style=&quot;font-size: 16px;&quot;&gt;$$N_{5}=4\xi\eta$$&lt;/font&gt;" style="text;html=1;align=left;verticalAlign=middle;resizable=0;points=[];autosize=1;strokeColor=none;fillColor=none;" vertex="1" parent="1">
          <mxGeometry x="880" y="169" width="160" height="30" as="geometry" />
        </mxCell>
        <mxCell id="2nDnPOnNq4007fujVJRt-4" value="&lt;font style=&quot;font-size: 16px;&quot;&gt;$$N_{6}=4\eta(1-\xi-\eta)$$&lt;/font&gt;" style="text;html=1;align=left;verticalAlign=middle;resizable=0;points=[];autosize=1;strokeColor=none;fillColor=none;" vertex="1" parent="1">
          <mxGeometry x="880" y="199" width="220" height="30" as="geometry" />
        </mxCell>
      </root>
    </mxGraphModel>
  </diagram>
  <diagram id="2GuDi_uxead73jI8hRZv" name="第 4 页">
    <mxGraphModel dx="782" dy="1648" grid="1" gridSize="10" guides="1" tooltips="1" connect="1" arrows="1" fold="1" page="1" pageScale="1" pageWidth="827" pageHeight="1169" math="1" shadow="0">
      <root>
        <mxCell id="0" />
        <mxCell id="1" parent="0" />
        <mxCell id="VHdwv5R--OIW6DmzRdNA-1" value="&lt;font&gt;$$1$$&lt;/font&gt;" style="text;html=1;align=center;verticalAlign=middle;resizable=0;points=[];autosize=1;strokeColor=none;fillColor=none;" vertex="1" parent="1">
          <mxGeometry x="321" y="134" width="60" height="30" as="geometry" />
        </mxCell>
        <mxCell id="VHdwv5R--OIW6DmzRdNA-2" value="&lt;font&gt;$$\xi$$&lt;/font&gt;" style="text;html=1;align=center;verticalAlign=middle;resizable=0;points=[];autosize=1;strokeColor=none;fillColor=none;" vertex="1" parent="1">
          <mxGeometry x="384" y="140" width="60" height="30" as="geometry" />
        </mxCell>
        <mxCell id="VHdwv5R--OIW6DmzRdNA-3" value="$$N_{2}$$" style="text;html=1;align=center;verticalAlign=middle;resizable=0;points=[];autosize=1;strokeColor=none;fillColor=none;" vertex="1" parent="1">
          <mxGeometry x="334" y="236" width="80" height="30" as="geometry" />
        </mxCell>
        <mxCell id="VHdwv5R--OIW6DmzRdNA-4" value="$$N_{3}$$" style="text;html=1;align=center;verticalAlign=middle;resizable=0;points=[];autosize=1;strokeColor=none;fillColor=none;" vertex="1" parent="1">
          <mxGeometry x="334" y="19" width="80" height="30" as="geometry" />
        </mxCell>
        <mxCell id="VHdwv5R--OIW6DmzRdNA-5" value="&lt;font&gt;$$1$$&lt;/font&gt;" style="text;html=1;align=center;verticalAlign=middle;resizable=0;points=[];autosize=1;strokeColor=none;fillColor=none;" vertex="1" parent="1">
          <mxGeometry x="220" y="36" width="60" height="30" as="geometry" />
        </mxCell>
        <mxCell id="VHdwv5R--OIW6DmzRdNA-6" value="$$N_{1}$$" style="text;html=1;align=center;verticalAlign=middle;resizable=0;points=[];autosize=1;strokeColor=none;fillColor=none;" vertex="1" parent="1">
          <mxGeometry x="105" y="236" width="80" height="30" as="geometry" />
        </mxCell>
        <mxCell id="VHdwv5R--OIW6DmzRdNA-7" value="&lt;font&gt;$$O$$&lt;/font&gt;" style="text;html=1;align=center;verticalAlign=middle;resizable=0;points=[];autosize=1;strokeColor=none;fillColor=none;" vertex="1" parent="1">
          <mxGeometry x="220" y="134" width="60" height="30" as="geometry" />
        </mxCell>
        <mxCell id="VHdwv5R--OIW6DmzRdNA-8" value="" style="endArrow=none;html=1;rounded=0;strokeWidth=2;" edge="1" parent="1">
          <mxGeometry width="50" height="50" relative="1" as="geometry">
            <mxPoint x="160" y="240" as="sourcePoint" />
            <mxPoint x="160" y="40" as="targetPoint" />
          </mxGeometry>
        </mxCell>
        <mxCell id="VHdwv5R--OIW6DmzRdNA-9" value="" style="endArrow=none;html=1;rounded=0;strokeWidth=2;" edge="1" parent="1">
          <mxGeometry width="50" height="50" relative="1" as="geometry">
            <mxPoint x="160" y="240" as="sourcePoint" />
            <mxPoint x="360" y="240" as="targetPoint" />
          </mxGeometry>
        </mxCell>
        <mxCell id="VHdwv5R--OIW6DmzRdNA-10" value="" style="endArrow=none;html=1;rounded=0;strokeWidth=2;" edge="1" parent="1">
          <mxGeometry width="50" height="50" relative="1" as="geometry">
            <mxPoint x="360" y="40" as="sourcePoint" />
            <mxPoint x="160" y="40" as="targetPoint" />
          </mxGeometry>
        </mxCell>
        <mxCell id="VHdwv5R--OIW6DmzRdNA-11" value="" style="endArrow=classic;html=1;rounded=0;" edge="1" parent="1">
          <mxGeometry width="50" height="50" relative="1" as="geometry">
            <mxPoint x="100" y="140" as="sourcePoint" />
            <mxPoint x="420" y="140" as="targetPoint" />
          </mxGeometry>
        </mxCell>
        <mxCell id="VHdwv5R--OIW6DmzRdNA-12" value="" style="endArrow=classic;html=1;rounded=0;" edge="1" parent="1">
          <mxGeometry width="50" height="50" relative="1" as="geometry">
            <mxPoint x="260" y="300" as="sourcePoint" />
            <mxPoint x="260" y="-20" as="targetPoint" />
          </mxGeometry>
        </mxCell>
        <mxCell id="VHdwv5R--OIW6DmzRdNA-13" value="&lt;font&gt;$$\eta$$&lt;/font&gt;" style="text;html=1;align=center;verticalAlign=middle;resizable=0;points=[];autosize=1;strokeColor=none;fillColor=none;" vertex="1" parent="1">
          <mxGeometry x="237" y="-32" width="70" height="30" as="geometry" />
        </mxCell>
        <mxCell id="VHdwv5R--OIW6DmzRdNA-14" value="" style="shape=waypoint;sketch=0;fillStyle=solid;size=6;pointerEvents=1;points=[];fillColor=none;resizable=0;rotatable=0;perimeter=centerPerimeter;snapToPoint=1;" vertex="1" parent="1">
          <mxGeometry x="150" y="30" width="20" height="20" as="geometry" />
        </mxCell>
        <mxCell id="VHdwv5R--OIW6DmzRdNA-15" value="" style="shape=waypoint;sketch=0;fillStyle=solid;size=6;pointerEvents=1;points=[];fillColor=none;resizable=0;rotatable=0;perimeter=centerPerimeter;snapToPoint=1;" vertex="1" parent="1">
          <mxGeometry x="150" y="230" width="20" height="20" as="geometry" />
        </mxCell>
        <mxCell id="VHdwv5R--OIW6DmzRdNA-16" value="" style="shape=waypoint;sketch=0;fillStyle=solid;size=6;pointerEvents=1;points=[];fillColor=none;resizable=0;rotatable=0;perimeter=centerPerimeter;snapToPoint=1;" vertex="1" parent="1">
          <mxGeometry x="350" y="230" width="20" height="20" as="geometry" />
        </mxCell>
        <mxCell id="VHdwv5R--OIW6DmzRdNA-17" value="&lt;font style=&quot;font-size: 16px;&quot;&gt;$$N_{1}=\frac{1}{4}(1-\xi)(1-\eta)$$&lt;/font&gt;" style="text;html=1;align=left;verticalAlign=middle;resizable=0;points=[];autosize=1;strokeColor=none;fillColor=none;" vertex="1" parent="1">
          <mxGeometry x="440" y="49" width="270" height="30" as="geometry" />
        </mxCell>
        <mxCell id="VHdwv5R--OIW6DmzRdNA-18" value="&lt;span style=&quot;font-size: 16px;&quot;&gt;$$N_{2}=\frac{1}{4}(1+\xi)(1-\eta)$$&lt;/span&gt;" style="text;html=1;align=left;verticalAlign=middle;resizable=0;points=[];autosize=1;strokeColor=none;fillColor=none;" vertex="1" parent="1">
          <mxGeometry x="440" y="99" width="280" height="30" as="geometry" />
        </mxCell>
        <mxCell id="VHdwv5R--OIW6DmzRdNA-19" value="&lt;span style=&quot;font-size: 16px;&quot;&gt;$$N_{3}=\frac{1}{4}(1+\xi)(1+\eta)$$&lt;/span&gt;" style="text;html=1;align=left;verticalAlign=middle;resizable=0;points=[];autosize=1;strokeColor=none;fillColor=none;" vertex="1" parent="1">
          <mxGeometry x="440" y="149" width="280" height="30" as="geometry" />
        </mxCell>
        <mxCell id="VHdwv5R--OIW6DmzRdNA-21" value="" style="endArrow=none;html=1;rounded=0;strokeWidth=2;" edge="1" parent="1" target="VHdwv5R--OIW6DmzRdNA-16">
          <mxGeometry width="50" height="50" relative="1" as="geometry">
            <mxPoint x="360" y="40" as="sourcePoint" />
            <mxPoint x="360" y="170" as="targetPoint" />
          </mxGeometry>
        </mxCell>
        <mxCell id="VHdwv5R--OIW6DmzRdNA-22" value="&lt;font&gt;$$-1$$&lt;/font&gt;" style="text;html=1;align=center;verticalAlign=middle;resizable=0;points=[];autosize=1;strokeColor=none;fillColor=none;" vertex="1" parent="1">
          <mxGeometry x="118" y="134" width="60" height="30" as="geometry" />
        </mxCell>
        <mxCell id="VHdwv5R--OIW6DmzRdNA-23" value="&lt;font&gt;$$-1$$&lt;/font&gt;" style="text;html=1;align=center;verticalAlign=middle;resizable=0;points=[];autosize=1;strokeColor=none;fillColor=none;" vertex="1" parent="1">
          <mxGeometry x="219" y="236" width="60" height="30" as="geometry" />
        </mxCell>
        <mxCell id="EFyKcYFTzOtiVhJQ4Q9--1" value="$$N_{4}$$" style="text;html=1;align=center;verticalAlign=middle;resizable=0;points=[];autosize=1;strokeColor=none;fillColor=none;" vertex="1" parent="1">
          <mxGeometry x="105" y="19" width="80" height="30" as="geometry" />
        </mxCell>
        <mxCell id="EFyKcYFTzOtiVhJQ4Q9--2" value="&lt;span style=&quot;font-size: 16px;&quot;&gt;$$N_{4}=\frac{1}{4}(1-\xi)(1+\eta)$$&lt;/span&gt;" style="text;html=1;align=left;verticalAlign=middle;resizable=0;points=[];autosize=1;strokeColor=none;fillColor=none;" vertex="1" parent="1">
          <mxGeometry x="440" y="199" width="280" height="30" as="geometry" />
        </mxCell>
        <mxCell id="EFyKcYFTzOtiVhJQ4Q9--3" value="" style="shape=waypoint;sketch=0;fillStyle=solid;size=6;pointerEvents=1;points=[];fillColor=none;resizable=0;rotatable=0;perimeter=centerPerimeter;snapToPoint=1;" vertex="1" parent="1">
          <mxGeometry x="350" y="30" width="20" height="20" as="geometry" />
        </mxCell>
      </root>
    </mxGraphModel>
  </diagram>
  <diagram id="duC50h5yLFpxxCCFjA9R" name="第 5 页">
    <mxGraphModel dx="943" dy="1747" grid="1" gridSize="10" guides="1" tooltips="1" connect="1" arrows="1" fold="1" page="1" pageScale="1" pageWidth="827" pageHeight="1169" math="1" shadow="0">
      <root>
        <mxCell id="0" />
        <mxCell id="1" parent="0" />
        <mxCell id="R2b3X3vIAvnBiaeD451z-1" value="&lt;font&gt;$$1$$&lt;/font&gt;" style="text;html=1;align=center;verticalAlign=middle;resizable=0;points=[];autosize=1;strokeColor=none;fillColor=none;" vertex="1" parent="1">
          <mxGeometry x="321" y="134" width="60" height="30" as="geometry" />
        </mxCell>
        <mxCell id="R2b3X3vIAvnBiaeD451z-2" value="&lt;font&gt;$$\xi$$&lt;/font&gt;" style="text;html=1;align=center;verticalAlign=middle;resizable=0;points=[];autosize=1;strokeColor=none;fillColor=none;" vertex="1" parent="1">
          <mxGeometry x="384" y="140" width="60" height="30" as="geometry" />
        </mxCell>
        <mxCell id="R2b3X3vIAvnBiaeD451z-3" value="$$N_{2}$$" style="text;html=1;align=center;verticalAlign=middle;resizable=0;points=[];autosize=1;strokeColor=none;fillColor=none;" vertex="1" parent="1">
          <mxGeometry x="334" y="236" width="80" height="30" as="geometry" />
        </mxCell>
        <mxCell id="R2b3X3vIAvnBiaeD451z-4" value="$$N_{3}$$" style="text;html=1;align=center;verticalAlign=middle;resizable=0;points=[];autosize=1;strokeColor=none;fillColor=none;" vertex="1" parent="1">
          <mxGeometry x="334" y="17" width="80" height="30" as="geometry" />
        </mxCell>
        <mxCell id="R2b3X3vIAvnBiaeD451z-5" value="&lt;font&gt;$$1$$&lt;/font&gt;" style="text;html=1;align=center;verticalAlign=middle;resizable=0;points=[];autosize=1;strokeColor=none;fillColor=none;" vertex="1" parent="1">
          <mxGeometry x="220" y="36" width="60" height="30" as="geometry" />
        </mxCell>
        <mxCell id="R2b3X3vIAvnBiaeD451z-6" value="$$N_{1}$$" style="text;html=1;align=center;verticalAlign=middle;resizable=0;points=[];autosize=1;strokeColor=none;fillColor=none;" vertex="1" parent="1">
          <mxGeometry x="105" y="236" width="80" height="30" as="geometry" />
        </mxCell>
        <mxCell id="R2b3X3vIAvnBiaeD451z-7" value="&lt;font&gt;$$O$$&lt;/font&gt;" style="text;html=1;align=center;verticalAlign=middle;resizable=0;points=[];autosize=1;strokeColor=none;fillColor=none;" vertex="1" parent="1">
          <mxGeometry x="220" y="134" width="60" height="30" as="geometry" />
        </mxCell>
        <mxCell id="R2b3X3vIAvnBiaeD451z-8" value="" style="endArrow=none;html=1;rounded=0;strokeWidth=2;" edge="1" parent="1">
          <mxGeometry width="50" height="50" relative="1" as="geometry">
            <mxPoint x="160" y="240" as="sourcePoint" />
            <mxPoint x="160" y="40" as="targetPoint" />
          </mxGeometry>
        </mxCell>
        <mxCell id="R2b3X3vIAvnBiaeD451z-9" value="" style="endArrow=none;html=1;rounded=0;strokeWidth=2;" edge="1" parent="1">
          <mxGeometry width="50" height="50" relative="1" as="geometry">
            <mxPoint x="160" y="240" as="sourcePoint" />
            <mxPoint x="360" y="240" as="targetPoint" />
          </mxGeometry>
        </mxCell>
        <mxCell id="R2b3X3vIAvnBiaeD451z-10" value="" style="endArrow=none;html=1;rounded=0;strokeWidth=2;" edge="1" parent="1">
          <mxGeometry width="50" height="50" relative="1" as="geometry">
            <mxPoint x="360" y="40" as="sourcePoint" />
            <mxPoint x="160" y="40" as="targetPoint" />
          </mxGeometry>
        </mxCell>
        <mxCell id="R2b3X3vIAvnBiaeD451z-11" value="" style="endArrow=classic;html=1;rounded=0;" edge="1" parent="1">
          <mxGeometry width="50" height="50" relative="1" as="geometry">
            <mxPoint x="100" y="140" as="sourcePoint" />
            <mxPoint x="420" y="140" as="targetPoint" />
          </mxGeometry>
        </mxCell>
        <mxCell id="R2b3X3vIAvnBiaeD451z-12" value="" style="endArrow=classic;html=1;rounded=0;" edge="1" parent="1">
          <mxGeometry width="50" height="50" relative="1" as="geometry">
            <mxPoint x="260" y="300" as="sourcePoint" />
            <mxPoint x="260" y="-20" as="targetPoint" />
          </mxGeometry>
        </mxCell>
        <mxCell id="R2b3X3vIAvnBiaeD451z-13" value="&lt;font&gt;$$\eta$$&lt;/font&gt;" style="text;html=1;align=center;verticalAlign=middle;resizable=0;points=[];autosize=1;strokeColor=none;fillColor=none;" vertex="1" parent="1">
          <mxGeometry x="237" y="-32" width="70" height="30" as="geometry" />
        </mxCell>
        <mxCell id="R2b3X3vIAvnBiaeD451z-14" value="" style="shape=waypoint;sketch=0;fillStyle=solid;size=6;pointerEvents=1;points=[];fillColor=none;resizable=0;rotatable=0;perimeter=centerPerimeter;snapToPoint=1;" vertex="1" parent="1">
          <mxGeometry x="150" y="30" width="20" height="20" as="geometry" />
        </mxCell>
        <mxCell id="R2b3X3vIAvnBiaeD451z-15" value="" style="shape=waypoint;sketch=0;fillStyle=solid;size=6;pointerEvents=1;points=[];fillColor=none;resizable=0;rotatable=0;perimeter=centerPerimeter;snapToPoint=1;" vertex="1" parent="1">
          <mxGeometry x="150" y="230" width="20" height="20" as="geometry" />
        </mxCell>
        <mxCell id="R2b3X3vIAvnBiaeD451z-16" value="" style="shape=waypoint;sketch=0;fillStyle=solid;size=6;pointerEvents=1;points=[];fillColor=none;resizable=0;rotatable=0;perimeter=centerPerimeter;snapToPoint=1;" vertex="1" parent="1">
          <mxGeometry x="350" y="230" width="20" height="20" as="geometry" />
        </mxCell>
        <mxCell id="R2b3X3vIAvnBiaeD451z-17" value="&lt;font style=&quot;font-size: 16px;&quot;&gt;$$N_{1}=\frac{1}{4}(1-\xi)(1-\eta)(\xi+\eta-1)$$&lt;/font&gt;" style="text;html=1;align=left;verticalAlign=middle;resizable=0;points=[];autosize=1;strokeColor=none;fillColor=none;" vertex="1" parent="1">
          <mxGeometry x="440" y="50" width="350" height="30" as="geometry" />
        </mxCell>
        <mxCell id="R2b3X3vIAvnBiaeD451z-18" value="&lt;span style=&quot;font-size: 16px;&quot;&gt;$$N_{2}=\frac{1}{4}(1+\xi)(1-\eta)(\xi-\eta-1)$$&lt;/span&gt;" style="text;html=1;align=left;verticalAlign=middle;resizable=0;points=[];autosize=1;strokeColor=none;fillColor=none;" vertex="1" parent="1">
          <mxGeometry x="440" y="100" width="350" height="30" as="geometry" />
        </mxCell>
        <mxCell id="R2b3X3vIAvnBiaeD451z-19" value="&lt;span style=&quot;font-size: 16px;&quot;&gt;$$N_{3}=\frac{1}{4}(1+\xi)(1+\eta)(\xi+\eta-1)$$&lt;/span&gt;" style="text;html=1;align=left;verticalAlign=middle;resizable=0;points=[];autosize=1;strokeColor=none;fillColor=none;" vertex="1" parent="1">
          <mxGeometry x="440" y="150" width="360" height="30" as="geometry" />
        </mxCell>
        <mxCell id="R2b3X3vIAvnBiaeD451z-20" value="" style="endArrow=none;html=1;rounded=0;strokeWidth=2;" edge="1" parent="1" target="R2b3X3vIAvnBiaeD451z-16">
          <mxGeometry width="50" height="50" relative="1" as="geometry">
            <mxPoint x="360" y="40" as="sourcePoint" />
            <mxPoint x="360" y="170" as="targetPoint" />
          </mxGeometry>
        </mxCell>
        <mxCell id="R2b3X3vIAvnBiaeD451z-21" value="&lt;font&gt;$$-1$$&lt;/font&gt;" style="text;html=1;align=center;verticalAlign=middle;resizable=0;points=[];autosize=1;strokeColor=none;fillColor=none;" vertex="1" parent="1">
          <mxGeometry x="140" y="134" width="60" height="30" as="geometry" />
        </mxCell>
        <mxCell id="R2b3X3vIAvnBiaeD451z-22" value="&lt;font&gt;$$-1$$&lt;/font&gt;" style="text;html=1;align=center;verticalAlign=middle;resizable=0;points=[];autosize=1;strokeColor=none;fillColor=none;" vertex="1" parent="1">
          <mxGeometry x="219" y="215" width="60" height="30" as="geometry" />
        </mxCell>
        <mxCell id="R2b3X3vIAvnBiaeD451z-23" value="$$N_{4}$$" style="text;html=1;align=center;verticalAlign=middle;resizable=0;points=[];autosize=1;strokeColor=none;fillColor=none;" vertex="1" parent="1">
          <mxGeometry x="105" y="17" width="80" height="30" as="geometry" />
        </mxCell>
        <mxCell id="R2b3X3vIAvnBiaeD451z-24" value="&lt;span style=&quot;font-size: 16px;&quot;&gt;$$N_{4}=\frac{1}{4}(1-\xi)(1+\eta)(-\xi+\eta-1)$$&lt;/span&gt;" style="text;html=1;align=left;verticalAlign=middle;resizable=0;points=[];autosize=1;strokeColor=none;fillColor=none;" vertex="1" parent="1">
          <mxGeometry x="440" y="200" width="360" height="30" as="geometry" />
        </mxCell>
        <mxCell id="R2b3X3vIAvnBiaeD451z-25" value="" style="shape=waypoint;sketch=0;fillStyle=solid;size=6;pointerEvents=1;points=[];fillColor=none;resizable=0;rotatable=0;perimeter=centerPerimeter;snapToPoint=1;" vertex="1" parent="1">
          <mxGeometry x="350" y="30" width="20" height="20" as="geometry" />
        </mxCell>
        <mxCell id="R2b3X3vIAvnBiaeD451z-26" value="" style="shape=waypoint;sketch=0;fillStyle=solid;size=6;pointerEvents=1;points=[];fillColor=none;resizable=0;rotatable=0;perimeter=centerPerimeter;snapToPoint=1;" vertex="1" parent="1">
          <mxGeometry x="250" y="30" width="20" height="20" as="geometry" />
        </mxCell>
        <mxCell id="R2b3X3vIAvnBiaeD451z-28" value="" style="shape=waypoint;sketch=0;fillStyle=solid;size=6;pointerEvents=1;points=[];fillColor=none;resizable=0;rotatable=0;perimeter=centerPerimeter;snapToPoint=1;" vertex="1" parent="1">
          <mxGeometry x="150" y="130" width="20" height="20" as="geometry" />
        </mxCell>
        <mxCell id="R2b3X3vIAvnBiaeD451z-29" value="" style="shape=waypoint;sketch=0;fillStyle=solid;size=6;pointerEvents=1;points=[];fillColor=none;resizable=0;rotatable=0;perimeter=centerPerimeter;snapToPoint=1;" vertex="1" parent="1">
          <mxGeometry x="350" y="130" width="20" height="20" as="geometry" />
        </mxCell>
        <mxCell id="R2b3X3vIAvnBiaeD451z-31" value="" style="shape=waypoint;sketch=0;fillStyle=solid;size=6;pointerEvents=1;points=[];fillColor=none;resizable=0;rotatable=0;perimeter=centerPerimeter;snapToPoint=1;" vertex="1" parent="1">
          <mxGeometry x="250" y="230" width="20" height="20" as="geometry" />
        </mxCell>
        <mxCell id="R2b3X3vIAvnBiaeD451z-32" value="$$N_{5}$$" style="text;html=1;align=center;verticalAlign=middle;resizable=0;points=[];autosize=1;strokeColor=none;fillColor=none;" vertex="1" parent="1">
          <mxGeometry x="232" y="236" width="80" height="30" as="geometry" />
        </mxCell>
        <mxCell id="b4HTo9JpjSJoD28HwfKC-1" value="$$N_{6}$$" style="text;html=1;align=center;verticalAlign=middle;resizable=0;points=[];autosize=1;strokeColor=none;fillColor=none;" vertex="1" parent="1">
          <mxGeometry x="334" y="116" width="80" height="30" as="geometry" />
        </mxCell>
        <mxCell id="b4HTo9JpjSJoD28HwfKC-2" value="$$N_{7}$$" style="text;html=1;align=center;verticalAlign=middle;resizable=0;points=[];autosize=1;strokeColor=none;fillColor=none;" vertex="1" parent="1">
          <mxGeometry x="232" y="17" width="80" height="30" as="geometry" />
        </mxCell>
        <mxCell id="b4HTo9JpjSJoD28HwfKC-3" value="$$N_{8}$$" style="text;html=1;align=center;verticalAlign=middle;resizable=0;points=[];autosize=1;strokeColor=none;fillColor=none;" vertex="1" parent="1">
          <mxGeometry x="105" y="116" width="80" height="30" as="geometry" />
        </mxCell>
        <mxCell id="b4HTo9JpjSJoD28HwfKC-5" value="&lt;font style=&quot;font-size: 16px;&quot;&gt;$$N_{5}=\frac{1}{2}(1-\xi^2)(1-\eta)$$&lt;/font&gt;" style="text;html=1;align=left;verticalAlign=middle;resizable=0;points=[];autosize=1;strokeColor=none;fillColor=none;" vertex="1" parent="1">
          <mxGeometry x="770" y="50" width="290" height="30" as="geometry" />
        </mxCell>
        <mxCell id="b4HTo9JpjSJoD28HwfKC-6" value="&lt;font style=&quot;font-size: 16px;&quot;&gt;$$N_{6}=\frac{1}{2}(1+\xi)(1-\eta^2)$$&lt;/font&gt;" style="text;html=1;align=left;verticalAlign=middle;resizable=0;points=[];autosize=1;strokeColor=none;fillColor=none;" vertex="1" parent="1">
          <mxGeometry x="770" y="100" width="290" height="30" as="geometry" />
        </mxCell>
        <mxCell id="b4HTo9JpjSJoD28HwfKC-7" value="&lt;font style=&quot;font-size: 16px;&quot;&gt;$$N_{7}=\frac{1}{2}(1-\xi^2)(1+\eta)$$&lt;/font&gt;" style="text;html=1;align=left;verticalAlign=middle;resizable=0;points=[];autosize=1;strokeColor=none;fillColor=none;" vertex="1" parent="1">
          <mxGeometry x="770" y="150" width="290" height="30" as="geometry" />
        </mxCell>
        <mxCell id="b4HTo9JpjSJoD28HwfKC-8" value="&lt;font style=&quot;font-size: 16px;&quot;&gt;$$N_{8}=\frac{1}{2}(1-\xi)(1-\eta^2)$$&lt;/font&gt;" style="text;html=1;align=left;verticalAlign=middle;resizable=0;points=[];autosize=1;strokeColor=none;fillColor=none;" vertex="1" parent="1">
          <mxGeometry x="770" y="200" width="290" height="30" as="geometry" />
        </mxCell>
      </root>
    </mxGraphModel>
  </diagram>
  <diagram id="dTP32wCcvPGW9IYXjtoK" name="第 6 页">
    <mxGraphModel dx="221" dy="1304" grid="1" gridSize="10" guides="1" tooltips="1" connect="1" arrows="1" fold="1" page="1" pageScale="1" pageWidth="827" pageHeight="1169" math="1" shadow="0">
      <root>
        <mxCell id="0" />
        <mxCell id="1" parent="0" />
        <mxCell id="y44yLGnfHpoh5EFyT0Rv-1" value="&lt;font&gt;$$1$$&lt;/font&gt;" style="text;html=1;align=center;verticalAlign=middle;resizable=0;points=[];autosize=1;strokeColor=none;fillColor=none;" vertex="1" parent="1">
          <mxGeometry x="321" y="134" width="60" height="30" as="geometry" />
        </mxCell>
        <mxCell id="y44yLGnfHpoh5EFyT0Rv-2" value="&lt;font&gt;$$\xi$$&lt;/font&gt;" style="text;html=1;align=center;verticalAlign=middle;resizable=0;points=[];autosize=1;strokeColor=none;fillColor=none;" vertex="1" parent="1">
          <mxGeometry x="384" y="140" width="60" height="30" as="geometry" />
        </mxCell>
        <mxCell id="y44yLGnfHpoh5EFyT0Rv-3" value="$$N_{2}$$" style="text;html=1;align=center;verticalAlign=middle;resizable=0;points=[];autosize=1;strokeColor=none;fillColor=none;" vertex="1" parent="1">
          <mxGeometry x="334" y="236" width="80" height="30" as="geometry" />
        </mxCell>
        <mxCell id="y44yLGnfHpoh5EFyT0Rv-4" value="$$N_{3}$$" style="text;html=1;align=center;verticalAlign=middle;resizable=0;points=[];autosize=1;strokeColor=none;fillColor=none;" vertex="1" parent="1">
          <mxGeometry x="334" y="17" width="80" height="30" as="geometry" />
        </mxCell>
        <mxCell id="y44yLGnfHpoh5EFyT0Rv-5" value="&lt;font&gt;$$1$$&lt;/font&gt;" style="text;html=1;align=center;verticalAlign=middle;resizable=0;points=[];autosize=1;strokeColor=none;fillColor=none;" vertex="1" parent="1">
          <mxGeometry x="220" y="36" width="60" height="30" as="geometry" />
        </mxCell>
        <mxCell id="y44yLGnfHpoh5EFyT0Rv-6" value="$$N_{1}$$" style="text;html=1;align=center;verticalAlign=middle;resizable=0;points=[];autosize=1;strokeColor=none;fillColor=none;" vertex="1" parent="1">
          <mxGeometry x="105" y="236" width="80" height="30" as="geometry" />
        </mxCell>
        <mxCell id="y44yLGnfHpoh5EFyT0Rv-7" value="&lt;font&gt;$$O$$&lt;/font&gt;" style="text;html=1;align=center;verticalAlign=middle;resizable=0;points=[];autosize=1;strokeColor=none;fillColor=none;" vertex="1" parent="1">
          <mxGeometry x="220" y="134" width="60" height="30" as="geometry" />
        </mxCell>
        <mxCell id="y44yLGnfHpoh5EFyT0Rv-8" value="" style="endArrow=none;html=1;rounded=0;strokeWidth=2;" edge="1" parent="1">
          <mxGeometry width="50" height="50" relative="1" as="geometry">
            <mxPoint x="160" y="240" as="sourcePoint" />
            <mxPoint x="160" y="40" as="targetPoint" />
          </mxGeometry>
        </mxCell>
        <mxCell id="y44yLGnfHpoh5EFyT0Rv-9" value="" style="endArrow=none;html=1;rounded=0;strokeWidth=2;" edge="1" parent="1">
          <mxGeometry width="50" height="50" relative="1" as="geometry">
            <mxPoint x="160" y="240" as="sourcePoint" />
            <mxPoint x="360" y="240" as="targetPoint" />
          </mxGeometry>
        </mxCell>
        <mxCell id="y44yLGnfHpoh5EFyT0Rv-10" value="" style="endArrow=none;html=1;rounded=0;strokeWidth=2;" edge="1" parent="1">
          <mxGeometry width="50" height="50" relative="1" as="geometry">
            <mxPoint x="360" y="40" as="sourcePoint" />
            <mxPoint x="160" y="40" as="targetPoint" />
          </mxGeometry>
        </mxCell>
        <mxCell id="y44yLGnfHpoh5EFyT0Rv-11" value="" style="endArrow=classic;html=1;rounded=0;" edge="1" parent="1">
          <mxGeometry width="50" height="50" relative="1" as="geometry">
            <mxPoint x="100" y="140" as="sourcePoint" />
            <mxPoint x="420" y="140" as="targetPoint" />
          </mxGeometry>
        </mxCell>
        <mxCell id="y44yLGnfHpoh5EFyT0Rv-12" value="" style="endArrow=classic;html=1;rounded=0;" edge="1" parent="1">
          <mxGeometry width="50" height="50" relative="1" as="geometry">
            <mxPoint x="260" y="300" as="sourcePoint" />
            <mxPoint x="260" y="-20" as="targetPoint" />
          </mxGeometry>
        </mxCell>
        <mxCell id="y44yLGnfHpoh5EFyT0Rv-13" value="&lt;font&gt;$$\eta$$&lt;/font&gt;" style="text;html=1;align=center;verticalAlign=middle;resizable=0;points=[];autosize=1;strokeColor=none;fillColor=none;" vertex="1" parent="1">
          <mxGeometry x="237" y="-32" width="70" height="30" as="geometry" />
        </mxCell>
        <mxCell id="y44yLGnfHpoh5EFyT0Rv-14" value="" style="shape=waypoint;sketch=0;fillStyle=solid;size=6;pointerEvents=1;points=[];fillColor=none;resizable=0;rotatable=0;perimeter=centerPerimeter;snapToPoint=1;" vertex="1" parent="1">
          <mxGeometry x="150" y="30" width="20" height="20" as="geometry" />
        </mxCell>
        <mxCell id="y44yLGnfHpoh5EFyT0Rv-15" value="" style="shape=waypoint;sketch=0;fillStyle=solid;size=6;pointerEvents=1;points=[];fillColor=none;resizable=0;rotatable=0;perimeter=centerPerimeter;snapToPoint=1;" vertex="1" parent="1">
          <mxGeometry x="150" y="230" width="20" height="20" as="geometry" />
        </mxCell>
        <mxCell id="y44yLGnfHpoh5EFyT0Rv-16" value="" style="shape=waypoint;sketch=0;fillStyle=solid;size=6;pointerEvents=1;points=[];fillColor=none;resizable=0;rotatable=0;perimeter=centerPerimeter;snapToPoint=1;" vertex="1" parent="1">
          <mxGeometry x="350" y="230" width="20" height="20" as="geometry" />
        </mxCell>
        <mxCell id="y44yLGnfHpoh5EFyT0Rv-17" value="&lt;font style=&quot;font-size: 16px;&quot;&gt;$$N_{1}=\frac{1}{4}\xi\eta(1-\xi)(1-\eta)$$&lt;/font&gt;" style="text;html=1;align=left;verticalAlign=middle;resizable=0;points=[];autosize=1;strokeColor=none;fillColor=none;" vertex="1" parent="1">
          <mxGeometry x="440" y="50" width="310" height="30" as="geometry" />
        </mxCell>
        <mxCell id="y44yLGnfHpoh5EFyT0Rv-18" value="&lt;span style=&quot;font-size: 16px;&quot;&gt;$$N_{2}=\frac{1}{4}\xi\eta(1+\xi)(1-\eta)$$&lt;/span&gt;" style="text;html=1;align=left;verticalAlign=middle;resizable=0;points=[];autosize=1;strokeColor=none;fillColor=none;" vertex="1" parent="1">
          <mxGeometry x="440" y="100" width="320" height="30" as="geometry" />
        </mxCell>
        <mxCell id="y44yLGnfHpoh5EFyT0Rv-19" value="&lt;span style=&quot;font-size: 16px;&quot;&gt;$$N_{3}=\frac{1}{4}\xi\eta(1+\xi)(1+\eta)$$&lt;/span&gt;" style="text;html=1;align=left;verticalAlign=middle;resizable=0;points=[];autosize=1;strokeColor=none;fillColor=none;" vertex="1" parent="1">
          <mxGeometry x="440" y="150" width="320" height="30" as="geometry" />
        </mxCell>
        <mxCell id="y44yLGnfHpoh5EFyT0Rv-20" value="" style="endArrow=none;html=1;rounded=0;strokeWidth=2;" edge="1" parent="1">
          <mxGeometry width="50" height="50" relative="1" as="geometry">
            <mxPoint x="360" y="40" as="sourcePoint" />
            <mxPoint x="360" y="240" as="targetPoint" />
          </mxGeometry>
        </mxCell>
        <mxCell id="y44yLGnfHpoh5EFyT0Rv-21" value="&lt;font&gt;$$-1$$&lt;/font&gt;" style="text;html=1;align=center;verticalAlign=middle;resizable=0;points=[];autosize=1;strokeColor=none;fillColor=none;" vertex="1" parent="1">
          <mxGeometry x="140" y="134" width="60" height="30" as="geometry" />
        </mxCell>
        <mxCell id="y44yLGnfHpoh5EFyT0Rv-22" value="&lt;font&gt;$$-1$$&lt;/font&gt;" style="text;html=1;align=center;verticalAlign=middle;resizable=0;points=[];autosize=1;strokeColor=none;fillColor=none;" vertex="1" parent="1">
          <mxGeometry x="219" y="215" width="60" height="30" as="geometry" />
        </mxCell>
        <mxCell id="y44yLGnfHpoh5EFyT0Rv-23" value="$$N_{4}$$" style="text;html=1;align=center;verticalAlign=middle;resizable=0;points=[];autosize=1;strokeColor=none;fillColor=none;" vertex="1" parent="1">
          <mxGeometry x="105" y="17" width="80" height="30" as="geometry" />
        </mxCell>
        <mxCell id="y44yLGnfHpoh5EFyT0Rv-24" value="&lt;span style=&quot;font-size: 16px;&quot;&gt;$$N_{4}=\frac{1}{4}\xi\eta(1-\xi)(1+\eta)$$&lt;/span&gt;" style="text;html=1;align=left;verticalAlign=middle;resizable=0;points=[];autosize=1;strokeColor=none;fillColor=none;" vertex="1" parent="1">
          <mxGeometry x="440" y="200" width="320" height="30" as="geometry" />
        </mxCell>
        <mxCell id="y44yLGnfHpoh5EFyT0Rv-25" value="" style="shape=waypoint;sketch=0;fillStyle=solid;size=6;pointerEvents=1;points=[];fillColor=none;resizable=0;rotatable=0;perimeter=centerPerimeter;snapToPoint=1;" vertex="1" parent="1">
          <mxGeometry x="350" y="30" width="20" height="20" as="geometry" />
        </mxCell>
        <mxCell id="y44yLGnfHpoh5EFyT0Rv-26" value="" style="shape=waypoint;sketch=0;fillStyle=solid;size=6;pointerEvents=1;points=[];fillColor=none;resizable=0;rotatable=0;perimeter=centerPerimeter;snapToPoint=1;" vertex="1" parent="1">
          <mxGeometry x="250" y="30" width="20" height="20" as="geometry" />
        </mxCell>
        <mxCell id="y44yLGnfHpoh5EFyT0Rv-27" value="" style="shape=waypoint;sketch=0;fillStyle=solid;size=6;pointerEvents=1;points=[];fillColor=none;resizable=0;rotatable=0;perimeter=centerPerimeter;snapToPoint=1;" vertex="1" parent="1">
          <mxGeometry x="150" y="130" width="20" height="20" as="geometry" />
        </mxCell>
        <mxCell id="y44yLGnfHpoh5EFyT0Rv-28" value="" style="shape=waypoint;sketch=0;fillStyle=solid;size=6;pointerEvents=1;points=[];fillColor=none;resizable=0;rotatable=0;perimeter=centerPerimeter;snapToPoint=1;" vertex="1" parent="1">
          <mxGeometry x="350" y="130" width="20" height="20" as="geometry" />
        </mxCell>
        <mxCell id="y44yLGnfHpoh5EFyT0Rv-29" value="" style="shape=waypoint;sketch=0;fillStyle=solid;size=6;pointerEvents=1;points=[];fillColor=none;resizable=0;rotatable=0;perimeter=centerPerimeter;snapToPoint=1;" vertex="1" parent="1">
          <mxGeometry x="250" y="230" width="20" height="20" as="geometry" />
        </mxCell>
        <mxCell id="y44yLGnfHpoh5EFyT0Rv-30" value="$$N_{5}$$" style="text;html=1;align=center;verticalAlign=middle;resizable=0;points=[];autosize=1;strokeColor=none;fillColor=none;" vertex="1" parent="1">
          <mxGeometry x="232" y="236" width="80" height="30" as="geometry" />
        </mxCell>
        <mxCell id="y44yLGnfHpoh5EFyT0Rv-31" value="$$N_{6}$$" style="text;html=1;align=center;verticalAlign=middle;resizable=0;points=[];autosize=1;strokeColor=none;fillColor=none;" vertex="1" parent="1">
          <mxGeometry x="334" y="116" width="80" height="30" as="geometry" />
        </mxCell>
        <mxCell id="y44yLGnfHpoh5EFyT0Rv-32" value="$$N_{7}$$" style="text;html=1;align=center;verticalAlign=middle;resizable=0;points=[];autosize=1;strokeColor=none;fillColor=none;" vertex="1" parent="1">
          <mxGeometry x="232" y="17" width="80" height="30" as="geometry" />
        </mxCell>
        <mxCell id="y44yLGnfHpoh5EFyT0Rv-33" value="$$N_{8}$$" style="text;html=1;align=center;verticalAlign=middle;resizable=0;points=[];autosize=1;strokeColor=none;fillColor=none;" vertex="1" parent="1">
          <mxGeometry x="105" y="116" width="80" height="30" as="geometry" />
        </mxCell>
        <mxCell id="y44yLGnfHpoh5EFyT0Rv-34" value="&lt;font style=&quot;font-size: 16px;&quot;&gt;$$N_{5}=\frac{1}{2}\eta(\eta-1)(1-\xi^2)$$&lt;/font&gt;" style="text;html=1;align=left;verticalAlign=middle;resizable=0;points=[];autosize=1;strokeColor=none;fillColor=none;" vertex="1" parent="1">
          <mxGeometry x="677" y="50" width="310" height="30" as="geometry" />
        </mxCell>
        <mxCell id="y44yLGnfHpoh5EFyT0Rv-35" value="&lt;font style=&quot;font-size: 16px;&quot;&gt;$$N_{6}=\frac{1}{2}\xi(\xi+1)(1-\eta^2)$$&lt;/font&gt;" style="text;html=1;align=left;verticalAlign=middle;resizable=0;points=[];autosize=1;strokeColor=none;fillColor=none;" vertex="1" parent="1">
          <mxGeometry x="677" y="100" width="310" height="30" as="geometry" />
        </mxCell>
        <mxCell id="y44yLGnfHpoh5EFyT0Rv-36" value="&lt;font style=&quot;font-size: 16px;&quot;&gt;$$N_{7}=\frac{1}{2}\eta(\eta+1)(1-\xi^2)$$&lt;/font&gt;" style="text;html=1;align=left;verticalAlign=middle;resizable=0;points=[];autosize=1;strokeColor=none;fillColor=none;" vertex="1" parent="1">
          <mxGeometry x="677" y="150" width="320" height="30" as="geometry" />
        </mxCell>
        <mxCell id="y44yLGnfHpoh5EFyT0Rv-37" value="&lt;font style=&quot;font-size: 16px;&quot;&gt;$$N_{8}=\frac{1}{2}\xi(\xi-1)(1-\eta^2)$$&lt;/font&gt;" style="text;html=1;align=left;verticalAlign=middle;resizable=0;points=[];autosize=1;strokeColor=none;fillColor=none;" vertex="1" parent="1">
          <mxGeometry x="677" y="200" width="300" height="30" as="geometry" />
        </mxCell>
        <mxCell id="_DvZ8g4eqjzyD8WG9ZGD-1" value="" style="shape=waypoint;sketch=0;fillStyle=solid;size=6;pointerEvents=1;points=[];fillColor=none;resizable=0;rotatable=0;perimeter=centerPerimeter;snapToPoint=1;" vertex="1" parent="1">
          <mxGeometry x="250" y="130" width="20" height="20" as="geometry" />
        </mxCell>
        <mxCell id="_DvZ8g4eqjzyD8WG9ZGD-2" value="$$N_{9}$$" style="text;html=1;align=center;verticalAlign=middle;resizable=0;points=[];autosize=1;strokeColor=none;fillColor=none;" vertex="1" parent="1">
          <mxGeometry x="232" y="116" width="80" height="30" as="geometry" />
        </mxCell>
        <mxCell id="tRpdfRkK0gwgkQr-tpvy-1" value="&lt;font style=&quot;font-size: 16px;&quot;&gt;$$N_{9}=\frac{1}{2}(1-\xi^2)(1-\eta^2)$$&lt;/font&gt;" style="text;html=1;align=left;verticalAlign=middle;resizable=0;points=[];autosize=1;strokeColor=none;fillColor=none;" vertex="1" parent="1">
          <mxGeometry x="579" y="250" width="300" height="30" as="geometry" />
        </mxCell>
      </root>
    </mxGraphModel>
  </diagram>
  <diagram id="K07AEhOK8qs6I7zqgsL-" name="第 7 页">
    <mxGraphModel dx="547" dy="335" grid="1" gridSize="10" guides="1" tooltips="1" connect="1" arrows="1" fold="1" page="1" pageScale="1" pageWidth="827" pageHeight="1169" math="1" shadow="0">
      <root>
        <mxCell id="0" />
        <mxCell id="1" parent="0" />
        <mxCell id="sxppsRDo4ZZZnn4WZkYU-1" value="$$P$$" style="text;html=1;align=center;verticalAlign=middle;resizable=0;points=[];autosize=1;strokeColor=none;fillColor=none;" vertex="1" parent="1">
          <mxGeometry x="183" y="160" width="60" height="30" as="geometry" />
        </mxCell>
        <mxCell id="sxppsRDo4ZZZnn4WZkYU-2" value="&lt;font&gt;$$P_{2}$$&lt;/font&gt;" style="text;html=1;align=center;verticalAlign=middle;resizable=0;points=[];autosize=1;strokeColor=none;fillColor=none;" vertex="1" parent="1">
          <mxGeometry x="330" y="230" width="80" height="30" as="geometry" />
        </mxCell>
        <mxCell id="sxppsRDo4ZZZnn4WZkYU-6" value="&lt;font&gt;$$P_{3}$$&lt;/font&gt;" style="text;html=1;align=center;verticalAlign=middle;resizable=0;points=[];autosize=1;strokeColor=none;fillColor=none;" vertex="1" parent="1">
          <mxGeometry x="108" y="20" width="80" height="30" as="geometry" />
        </mxCell>
        <mxCell id="sxppsRDo4ZZZnn4WZkYU-8" value="&lt;font&gt;$$P_{1}$$&lt;/font&gt;" style="text;html=1;align=center;verticalAlign=middle;resizable=0;points=[];autosize=1;strokeColor=none;fillColor=none;" vertex="1" parent="1">
          <mxGeometry x="68" y="230" width="80" height="30" as="geometry" />
        </mxCell>
        <mxCell id="sxppsRDo4ZZZnn4WZkYU-9" value="" style="endArrow=none;html=1;rounded=0;strokeWidth=2;" edge="1" parent="1">
          <mxGeometry width="50" height="50" relative="1" as="geometry">
            <mxPoint x="120" y="240" as="sourcePoint" />
            <mxPoint x="160" y="40" as="targetPoint" />
          </mxGeometry>
        </mxCell>
        <mxCell id="sxppsRDo4ZZZnn4WZkYU-10" value="" style="endArrow=none;html=1;rounded=0;strokeWidth=2;" edge="1" parent="1">
          <mxGeometry width="50" height="50" relative="1" as="geometry">
            <mxPoint x="120" y="240" as="sourcePoint" />
            <mxPoint x="360" y="240" as="targetPoint" />
          </mxGeometry>
        </mxCell>
        <mxCell id="sxppsRDo4ZZZnn4WZkYU-11" value="" style="endArrow=none;html=1;rounded=0;strokeWidth=2;" edge="1" parent="1">
          <mxGeometry width="50" height="50" relative="1" as="geometry">
            <mxPoint x="360" y="240" as="sourcePoint" />
            <mxPoint x="160" y="40" as="targetPoint" />
          </mxGeometry>
        </mxCell>
        <mxCell id="sxppsRDo4ZZZnn4WZkYU-15" value="" style="shape=waypoint;sketch=0;fillStyle=solid;size=6;pointerEvents=1;points=[];fillColor=none;resizable=0;rotatable=0;perimeter=centerPerimeter;snapToPoint=1;strokeWidth=0.3;" vertex="1" parent="1">
          <mxGeometry x="203" y="150" width="20" height="20" as="geometry" />
        </mxCell>
        <mxCell id="sxppsRDo4ZZZnn4WZkYU-16" value="" style="endArrow=none;html=1;rounded=0;entryX=0.4;entryY=0.608;entryDx=0;entryDy=0;entryPerimeter=0;" edge="1" parent="1" target="sxppsRDo4ZZZnn4WZkYU-15">
          <mxGeometry width="50" height="50" relative="1" as="geometry">
            <mxPoint x="120" y="240" as="sourcePoint" />
            <mxPoint x="210" y="170" as="targetPoint" />
          </mxGeometry>
        </mxCell>
        <mxCell id="sxppsRDo4ZZZnn4WZkYU-17" value="" style="endArrow=none;html=1;rounded=0;exitX=0.55;exitY=0.658;exitDx=0;exitDy=0;exitPerimeter=0;" edge="1" parent="1" source="sxppsRDo4ZZZnn4WZkYU-15">
          <mxGeometry width="50" height="50" relative="1" as="geometry">
            <mxPoint x="230" y="180" as="sourcePoint" />
            <mxPoint x="360" y="240" as="targetPoint" />
          </mxGeometry>
        </mxCell>
        <mxCell id="sxppsRDo4ZZZnn4WZkYU-18" value="" style="endArrow=none;html=1;rounded=0;" edge="1" parent="1">
          <mxGeometry width="50" height="50" relative="1" as="geometry">
            <mxPoint x="213" y="160" as="sourcePoint" />
            <mxPoint x="160" y="40" as="targetPoint" />
          </mxGeometry>
        </mxCell>
        <mxCell id="WfwnYWpb-r26w9mPOo__-1" value="$$L_{1}$$" style="text;html=1;align=center;verticalAlign=middle;resizable=0;points=[];autosize=1;strokeColor=none;fillColor=none;" vertex="1" parent="1">
          <mxGeometry x="204" y="140" width="80" height="30" as="geometry" />
        </mxCell>
        <mxCell id="WfwnYWpb-r26w9mPOo__-2" value="$$L_{3}$$" style="text;html=1;align=center;verticalAlign=middle;resizable=0;points=[];autosize=1;strokeColor=none;fillColor=none;" vertex="1" parent="1">
          <mxGeometry x="183" y="192" width="80" height="30" as="geometry" />
        </mxCell>
        <mxCell id="WfwnYWpb-r26w9mPOo__-3" value="$$L_{2}$$" style="text;html=1;align=center;verticalAlign=middle;resizable=0;points=[];autosize=1;strokeColor=none;fillColor=none;" vertex="1" parent="1">
          <mxGeometry x="126" y="133" width="80" height="30" as="geometry" />
        </mxCell>
      </root>
    </mxGraphModel>
  </diagram>
  <diagram id="vqYerYcJIPp7oBkpEEoK" name="第 8 页">
    <mxGraphModel dx="547" dy="335" grid="1" gridSize="10" guides="1" tooltips="1" connect="1" arrows="1" fold="1" page="1" pageScale="1" pageWidth="827" pageHeight="1169" math="1" shadow="0">
      <root>
        <mxCell id="0" />
        <mxCell id="1" parent="0" />
        <mxCell id="SQBMUl2kxSFdTaR3ZsI1-4" value="&lt;font&gt;$$N_{1}$$&lt;/font&gt;" style="text;html=1;align=center;verticalAlign=middle;resizable=0;points=[];autosize=1;strokeColor=none;fillColor=none;" vertex="1" parent="1">
          <mxGeometry x="90" y="250" width="80" height="30" as="geometry" />
        </mxCell>
        <mxCell id="SQBMUl2kxSFdTaR3ZsI1-2" value="&lt;font&gt;$$N_{2}$$&lt;/font&gt;" style="text;html=1;align=center;verticalAlign=middle;resizable=0;points=[];autosize=1;strokeColor=none;fillColor=none;" vertex="1" parent="1">
          <mxGeometry x="334" y="250" width="80" height="30" as="geometry" />
        </mxCell>
        <mxCell id="SQBMUl2kxSFdTaR3ZsI1-3" value="&lt;font&gt;$$N_{3}$$&lt;/font&gt;" style="text;html=1;align=center;verticalAlign=middle;resizable=0;points=[];autosize=1;strokeColor=none;fillColor=none;" vertex="1" parent="1">
          <mxGeometry x="120" y="20" width="80" height="30" as="geometry" />
        </mxCell>
        <mxCell id="sNB5miC7udTAfaL-780T-1" value="&lt;font style=&quot;font-size: 16px;&quot;&gt;$$N_{1}=L_{1}$$&lt;/font&gt;" style="text;html=1;align=left;verticalAlign=middle;resizable=0;points=[];autosize=1;strokeColor=none;fillColor=none;" vertex="1" parent="1">
          <mxGeometry x="370" y="80" width="150" height="30" as="geometry" />
        </mxCell>
        <mxCell id="sNB5miC7udTAfaL-780T-2" value="&lt;font style=&quot;font-size: 16px;&quot;&gt;$$N_{2}=L_{2}$$&lt;/font&gt;" style="text;html=1;align=left;verticalAlign=middle;resizable=0;points=[];autosize=1;strokeColor=none;fillColor=none;" vertex="1" parent="1">
          <mxGeometry x="370" y="110" width="150" height="30" as="geometry" />
        </mxCell>
        <mxCell id="sNB5miC7udTAfaL-780T-3" value="&lt;font style=&quot;font-size: 16px;&quot;&gt;$$N_{3}=L_{3}$$&lt;/font&gt;" style="text;html=1;align=left;verticalAlign=middle;resizable=0;points=[];autosize=1;strokeColor=none;fillColor=none;" vertex="1" parent="1">
          <mxGeometry x="370" y="140" width="150" height="30" as="geometry" />
        </mxCell>
        <mxCell id="0u7x7SAa3v0XicIzOV8X-16" value="" style="endArrow=none;html=1;rounded=0;strokeWidth=2;" edge="1" parent="1">
          <mxGeometry width="50" height="50" relative="1" as="geometry">
            <mxPoint x="130" y="250" as="sourcePoint" />
            <mxPoint x="170" y="50" as="targetPoint" />
          </mxGeometry>
        </mxCell>
        <mxCell id="0u7x7SAa3v0XicIzOV8X-17" value="" style="endArrow=none;html=1;rounded=0;strokeWidth=2;" edge="1" parent="1">
          <mxGeometry width="50" height="50" relative="1" as="geometry">
            <mxPoint x="130" y="250" as="sourcePoint" />
            <mxPoint x="370" y="250" as="targetPoint" />
          </mxGeometry>
        </mxCell>
        <mxCell id="0u7x7SAa3v0XicIzOV8X-18" value="" style="endArrow=none;html=1;rounded=0;strokeWidth=2;" edge="1" parent="1">
          <mxGeometry width="50" height="50" relative="1" as="geometry">
            <mxPoint x="370" y="250" as="sourcePoint" />
            <mxPoint x="170" y="50" as="targetPoint" />
          </mxGeometry>
        </mxCell>
        <mxCell id="UvXQ-YA3J39eR2m76fk1-1" value="" style="shape=waypoint;sketch=0;fillStyle=solid;size=6;pointerEvents=1;points=[];fillColor=none;resizable=0;rotatable=0;perimeter=centerPerimeter;snapToPoint=1;" vertex="1" parent="1">
          <mxGeometry x="120" y="240" width="20" height="20" as="geometry" />
        </mxCell>
        <mxCell id="UvXQ-YA3J39eR2m76fk1-2" value="" style="shape=waypoint;sketch=0;fillStyle=solid;size=6;pointerEvents=1;points=[];fillColor=none;resizable=0;rotatable=0;perimeter=centerPerimeter;snapToPoint=1;" vertex="1" parent="1">
          <mxGeometry x="360" y="240" width="20" height="20" as="geometry" />
        </mxCell>
        <mxCell id="UvXQ-YA3J39eR2m76fk1-3" value="" style="shape=waypoint;sketch=0;fillStyle=solid;size=6;pointerEvents=1;points=[];fillColor=none;resizable=0;rotatable=0;perimeter=centerPerimeter;snapToPoint=1;" vertex="1" parent="1">
          <mxGeometry x="160" y="40" width="20" height="20" as="geometry" />
        </mxCell>
      </root>
    </mxGraphModel>
  </diagram>
  <diagram id="M-lsSuPZXGNGpIbZyFgD" name="第 9 页">
    <mxGraphModel dx="651" dy="399" grid="1" gridSize="10" guides="1" tooltips="1" connect="1" arrows="1" fold="1" page="1" pageScale="1" pageWidth="827" pageHeight="1169" math="1" shadow="0">
      <root>
        <mxCell id="0" />
        <mxCell id="1" parent="0" />
        <mxCell id="88nnRRKSbTZ5de_SniVc-1" value="&lt;font&gt;$$N_{1}$$&lt;/font&gt;" style="text;html=1;align=center;verticalAlign=middle;resizable=0;points=[];autosize=1;strokeColor=none;fillColor=none;" vertex="1" parent="1">
          <mxGeometry x="90" y="250" width="80" height="30" as="geometry" />
        </mxCell>
        <mxCell id="88nnRRKSbTZ5de_SniVc-2" value="&lt;font&gt;$$N_{2}$$&lt;/font&gt;" style="text;html=1;align=center;verticalAlign=middle;resizable=0;points=[];autosize=1;strokeColor=none;fillColor=none;" vertex="1" parent="1">
          <mxGeometry x="334" y="250" width="80" height="30" as="geometry" />
        </mxCell>
        <mxCell id="88nnRRKSbTZ5de_SniVc-3" value="&lt;font&gt;$$N_{3}$$&lt;/font&gt;" style="text;html=1;align=center;verticalAlign=middle;resizable=0;points=[];autosize=1;strokeColor=none;fillColor=none;" vertex="1" parent="1">
          <mxGeometry x="120" y="20" width="80" height="30" as="geometry" />
        </mxCell>
        <mxCell id="88nnRRKSbTZ5de_SniVc-4" value="&lt;font style=&quot;font-size: 16px;&quot;&gt;$$N_{1}=L_{1}(2L_{1}-1)$$&lt;/font&gt;" style="text;html=1;align=left;verticalAlign=middle;resizable=0;points=[];autosize=1;strokeColor=none;fillColor=none;" vertex="1" parent="1">
          <mxGeometry x="380" y="55" width="220" height="30" as="geometry" />
        </mxCell>
        <mxCell id="88nnRRKSbTZ5de_SniVc-5" value="&lt;font style=&quot;font-size: 16px;&quot;&gt;$$N_{2}=L_{2}(2L_{2}-1)$$&lt;/font&gt;" style="text;html=1;align=left;verticalAlign=middle;resizable=0;points=[];autosize=1;strokeColor=none;fillColor=none;" vertex="1" parent="1">
          <mxGeometry x="380" y="85" width="220" height="30" as="geometry" />
        </mxCell>
        <mxCell id="88nnRRKSbTZ5de_SniVc-6" value="&lt;font style=&quot;font-size: 16px;&quot;&gt;$$N_{3}=L_{3}(2L_{3}-1)$$&lt;/font&gt;" style="text;html=1;align=left;verticalAlign=middle;resizable=0;points=[];autosize=1;strokeColor=none;fillColor=none;" vertex="1" parent="1">
          <mxGeometry x="380" y="115" width="220" height="30" as="geometry" />
        </mxCell>
        <mxCell id="88nnRRKSbTZ5de_SniVc-7" value="" style="endArrow=none;html=1;rounded=0;strokeWidth=2;" edge="1" parent="1">
          <mxGeometry width="50" height="50" relative="1" as="geometry">
            <mxPoint x="130" y="250" as="sourcePoint" />
            <mxPoint x="170" y="50" as="targetPoint" />
          </mxGeometry>
        </mxCell>
        <mxCell id="88nnRRKSbTZ5de_SniVc-8" value="" style="endArrow=none;html=1;rounded=0;strokeWidth=2;" edge="1" parent="1">
          <mxGeometry width="50" height="50" relative="1" as="geometry">
            <mxPoint x="130" y="250" as="sourcePoint" />
            <mxPoint x="370" y="250" as="targetPoint" />
          </mxGeometry>
        </mxCell>
        <mxCell id="88nnRRKSbTZ5de_SniVc-9" value="" style="endArrow=none;html=1;rounded=0;strokeWidth=2;" edge="1" parent="1">
          <mxGeometry width="50" height="50" relative="1" as="geometry">
            <mxPoint x="370" y="250" as="sourcePoint" />
            <mxPoint x="170" y="50" as="targetPoint" />
          </mxGeometry>
        </mxCell>
        <mxCell id="88nnRRKSbTZ5de_SniVc-10" value="" style="shape=waypoint;sketch=0;fillStyle=solid;size=6;pointerEvents=1;points=[];fillColor=none;resizable=0;rotatable=0;perimeter=centerPerimeter;snapToPoint=1;" vertex="1" parent="1">
          <mxGeometry x="120" y="240" width="20" height="20" as="geometry" />
        </mxCell>
        <mxCell id="88nnRRKSbTZ5de_SniVc-11" value="" style="shape=waypoint;sketch=0;fillStyle=solid;size=6;pointerEvents=1;points=[];fillColor=none;resizable=0;rotatable=0;perimeter=centerPerimeter;snapToPoint=1;" vertex="1" parent="1">
          <mxGeometry x="360" y="240" width="20" height="20" as="geometry" />
        </mxCell>
        <mxCell id="88nnRRKSbTZ5de_SniVc-12" value="" style="shape=waypoint;sketch=0;fillStyle=solid;size=6;pointerEvents=1;points=[];fillColor=none;resizable=0;rotatable=0;perimeter=centerPerimeter;snapToPoint=1;" vertex="1" parent="1">
          <mxGeometry x="160" y="40" width="20" height="20" as="geometry" />
        </mxCell>
        <mxCell id="88nnRRKSbTZ5de_SniVc-13" value="" style="shape=waypoint;sketch=0;fillStyle=solid;size=6;pointerEvents=1;points=[];fillColor=none;resizable=0;rotatable=0;perimeter=centerPerimeter;snapToPoint=1;" vertex="1" parent="1">
          <mxGeometry x="240" y="240" width="20" height="20" as="geometry" />
        </mxCell>
        <mxCell id="88nnRRKSbTZ5de_SniVc-14" value="&lt;font&gt;$$N_{4}$$&lt;/font&gt;" style="text;html=1;align=center;verticalAlign=middle;resizable=0;points=[];autosize=1;strokeColor=none;fillColor=none;" vertex="1" parent="1">
          <mxGeometry x="210" y="250" width="80" height="30" as="geometry" />
        </mxCell>
        <mxCell id="88nnRRKSbTZ5de_SniVc-15" value="" style="shape=waypoint;sketch=0;fillStyle=solid;size=6;pointerEvents=1;points=[];fillColor=none;resizable=0;rotatable=0;perimeter=centerPerimeter;snapToPoint=1;" vertex="1" parent="1">
          <mxGeometry x="260" y="140" width="20" height="20" as="geometry" />
        </mxCell>
        <mxCell id="88nnRRKSbTZ5de_SniVc-16" value="&lt;font&gt;$$N_{5}$$&lt;/font&gt;" style="text;html=1;align=center;verticalAlign=middle;resizable=0;points=[];autosize=1;strokeColor=none;fillColor=none;" vertex="1" parent="1">
          <mxGeometry x="246" y="130" width="80" height="30" as="geometry" />
        </mxCell>
        <mxCell id="88nnRRKSbTZ5de_SniVc-17" value="&lt;font&gt;$$N_{6}$$&lt;/font&gt;" style="text;html=1;align=center;verticalAlign=middle;resizable=0;points=[];autosize=1;strokeColor=none;fillColor=none;" vertex="1" parent="1">
          <mxGeometry x="96" y="135" width="80" height="30" as="geometry" />
        </mxCell>
        <mxCell id="88nnRRKSbTZ5de_SniVc-18" value="" style="shape=waypoint;sketch=0;fillStyle=solid;size=6;pointerEvents=1;points=[];fillColor=none;resizable=0;rotatable=0;perimeter=centerPerimeter;snapToPoint=1;" vertex="1" parent="1">
          <mxGeometry x="140" y="140" width="20" height="20" as="geometry" />
        </mxCell>
        <mxCell id="88nnRRKSbTZ5de_SniVc-21" value="&lt;font style=&quot;font-size: 16px;&quot;&gt;$$N_{4}=4L_{1}L_{2}$$&lt;/font&gt;" style="text;html=1;align=left;verticalAlign=middle;resizable=0;points=[];autosize=1;strokeColor=none;fillColor=none;" vertex="1" parent="1">
          <mxGeometry x="380" y="145" width="190" height="30" as="geometry" />
        </mxCell>
        <mxCell id="88nnRRKSbTZ5de_SniVc-22" value="&lt;font style=&quot;font-size: 16px;&quot;&gt;$$N_{5}=4L_{2}L_{3}$$&lt;/font&gt;" style="text;html=1;align=left;verticalAlign=middle;resizable=0;points=[];autosize=1;strokeColor=none;fillColor=none;" vertex="1" parent="1">
          <mxGeometry x="380" y="175" width="190" height="30" as="geometry" />
        </mxCell>
        <mxCell id="88nnRRKSbTZ5de_SniVc-23" value="&lt;font style=&quot;font-size: 16px;&quot;&gt;$$N_{6}=4L_{3}L_{1}$$&lt;/font&gt;" style="text;html=1;align=left;verticalAlign=middle;resizable=0;points=[];autosize=1;strokeColor=none;fillColor=none;" vertex="1" parent="1">
          <mxGeometry x="380" y="205" width="190" height="30" as="geometry" />
        </mxCell>
      </root>
    </mxGraphModel>
  </diagram>
  <diagram id="LkyqPA2gykgaLJrWN-4Y" name="第 10 页">
    <mxGraphModel dx="943" dy="578" grid="1" gridSize="10" guides="1" tooltips="1" connect="1" arrows="1" fold="1" page="1" pageScale="1" pageWidth="827" pageHeight="1169" math="1" shadow="0">
      <root>
        <mxCell id="0" />
        <mxCell id="1" parent="0" />
        <mxCell id="eLDP0qVDCVmEM5Waib8o-1" value="" style="rounded=0;whiteSpace=wrap;html=1;fillColor=none;strokeWidth=2;" vertex="1" parent="1">
          <mxGeometry x="200" y="360" width="120" height="80" as="geometry" />
        </mxCell>
        <mxCell id="eLDP0qVDCVmEM5Waib8o-5" value="" style="shape=waypoint;sketch=0;fillStyle=solid;size=6;pointerEvents=1;points=[];fillColor=none;resizable=0;rotatable=0;perimeter=centerPerimeter;snapToPoint=1;" vertex="1" parent="1">
          <mxGeometry x="190" y="430" width="20" height="20" as="geometry" />
        </mxCell>
        <mxCell id="eLDP0qVDCVmEM5Waib8o-7" value="&lt;font style=&quot;font-size: 14px;&quot;&gt;$$P$$&lt;/font&gt;" style="text;html=1;align=center;verticalAlign=middle;resizable=0;points=[];autosize=1;strokeColor=none;fillColor=none;" vertex="1" parent="1">
          <mxGeometry x="156" y="435" width="60" height="30" as="geometry" />
        </mxCell>
        <mxCell id="eLDP0qVDCVmEM5Waib8o-14" value="" style="shape=waypoint;sketch=0;fillStyle=solid;size=6;pointerEvents=1;points=[];fillColor=none;resizable=0;rotatable=0;perimeter=centerPerimeter;snapToPoint=1;" vertex="1" parent="1">
          <mxGeometry x="310" y="430" width="20" height="20" as="geometry" />
        </mxCell>
        <mxCell id="eLDP0qVDCVmEM5Waib8o-15" value="" style="shape=waypoint;sketch=0;fillStyle=solid;size=6;pointerEvents=1;points=[];fillColor=none;resizable=0;rotatable=0;perimeter=centerPerimeter;snapToPoint=1;" vertex="1" parent="1">
          <mxGeometry x="310" y="350" width="20" height="20" as="geometry" />
        </mxCell>
        <mxCell id="eLDP0qVDCVmEM5Waib8o-16" value="" style="shape=waypoint;sketch=0;fillStyle=solid;size=6;pointerEvents=1;points=[];fillColor=none;resizable=0;rotatable=0;perimeter=centerPerimeter;snapToPoint=1;" vertex="1" parent="1">
          <mxGeometry x="190" y="350" width="20" height="20" as="geometry" />
        </mxCell>
        <mxCell id="eLDP0qVDCVmEM5Waib8o-17" value="&lt;font style=&quot;font-size: 14px;&quot;&gt;$$\mathrm{d}\xi$$&lt;/font&gt;" style="text;html=1;align=center;verticalAlign=middle;resizable=0;points=[];autosize=1;strokeColor=none;fillColor=none;" vertex="1" parent="1">
          <mxGeometry x="190" y="440" width="140" height="30" as="geometry" />
        </mxCell>
        <mxCell id="eLDP0qVDCVmEM5Waib8o-18" value="&lt;font style=&quot;font-size: 14px;&quot;&gt;$$\mathrm{d}\eta$$&lt;/font&gt;" style="text;html=1;align=center;verticalAlign=middle;resizable=0;points=[];autosize=1;strokeColor=none;fillColor=none;" vertex="1" parent="1">
          <mxGeometry x="111" y="385" width="150" height="30" as="geometry" />
        </mxCell>
        <mxCell id="eLDP0qVDCVmEM5Waib8o-29" value="&lt;font style=&quot;font-size: 14px;&quot;&gt;$$A$$&lt;/font&gt;" style="text;html=1;align=center;verticalAlign=middle;resizable=0;points=[];autosize=1;strokeColor=none;fillColor=none;" vertex="1" parent="1">
          <mxGeometry x="301" y="435" width="60" height="30" as="geometry" />
        </mxCell>
        <mxCell id="eLDP0qVDCVmEM5Waib8o-30" value="&lt;font style=&quot;font-size: 14px;&quot;&gt;$$B$$&lt;/font&gt;" style="text;html=1;align=center;verticalAlign=middle;resizable=0;points=[];autosize=1;strokeColor=none;fillColor=none;" vertex="1" parent="1">
          <mxGeometry x="156" y="338" width="60" height="30" as="geometry" />
        </mxCell>
        <mxCell id="eLDP0qVDCVmEM5Waib8o-31" value="&lt;font style=&quot;font-size: 14px;&quot;&gt;$$P&#39;$$&lt;/font&gt;" style="text;html=1;align=center;verticalAlign=middle;resizable=0;points=[];autosize=1;strokeColor=none;fillColor=none;" vertex="1" parent="1">
          <mxGeometry x="394" y="440" width="70" height="30" as="geometry" />
        </mxCell>
        <mxCell id="eLDP0qVDCVmEM5Waib8o-32" value="&lt;font style=&quot;font-size: 14px;&quot;&gt;$$A&#39;$$&lt;/font&gt;" style="text;html=1;align=center;verticalAlign=middle;resizable=0;points=[];autosize=1;strokeColor=none;fillColor=none;" vertex="1" parent="1">
          <mxGeometry x="520" y="430" width="70" height="30" as="geometry" />
        </mxCell>
        <mxCell id="eLDP0qVDCVmEM5Waib8o-2" value="" style="shape=parallelogram;perimeter=parallelogramPerimeter;whiteSpace=wrap;html=1;fixedSize=1;fillColor=none;strokeWidth=2;rotation=-5;" vertex="1" parent="1">
          <mxGeometry x="440" y="360" width="120" height="80" as="geometry" />
        </mxCell>
        <mxCell id="eLDP0qVDCVmEM5Waib8o-6" value="" style="shape=waypoint;sketch=0;fillStyle=solid;size=6;pointerEvents=1;points=[];fillColor=none;resizable=0;rotatable=0;perimeter=centerPerimeter;snapToPoint=1;rotation=-5;" vertex="1" parent="1">
          <mxGeometry x="434" y="435" width="20" height="20" as="geometry" />
        </mxCell>
        <mxCell id="eLDP0qVDCVmEM5Waib8o-25" value="" style="shape=waypoint;sketch=0;fillStyle=solid;size=6;pointerEvents=1;points=[];fillColor=none;resizable=0;rotatable=0;perimeter=centerPerimeter;snapToPoint=1;rotation=-5;" vertex="1" parent="1">
          <mxGeometry x="447" y="354" width="20" height="20" as="geometry" />
        </mxCell>
        <mxCell id="eLDP0qVDCVmEM5Waib8o-26" value="" style="shape=waypoint;sketch=0;fillStyle=solid;size=6;pointerEvents=1;points=[];fillColor=none;resizable=0;rotatable=0;perimeter=centerPerimeter;snapToPoint=1;rotation=-5;" vertex="1" parent="1">
          <mxGeometry x="533" y="426" width="20" height="20" as="geometry" />
        </mxCell>
        <mxCell id="eLDP0qVDCVmEM5Waib8o-27" value="" style="shape=waypoint;sketch=0;fillStyle=solid;size=6;pointerEvents=1;points=[];fillColor=none;resizable=0;rotatable=0;perimeter=centerPerimeter;snapToPoint=1;rotation=-5;" vertex="1" parent="1">
          <mxGeometry x="546" y="345" width="20" height="20" as="geometry" />
        </mxCell>
        <mxCell id="eLDP0qVDCVmEM5Waib8o-33" value="&lt;font style=&quot;font-size: 14px;&quot;&gt;$$B&#39;$$&lt;/font&gt;" style="text;html=1;align=center;verticalAlign=middle;resizable=0;points=[];autosize=1;strokeColor=none;fillColor=none;" vertex="1" parent="1">
          <mxGeometry x="409" y="349" width="70" height="30" as="geometry" />
        </mxCell>
        <mxCell id="eLDP0qVDCVmEM5Waib8o-34" value="&lt;font style=&quot;font-size: 14px;&quot;&gt;$$C$$&lt;/font&gt;" style="text;html=1;align=center;verticalAlign=middle;resizable=0;points=[];autosize=1;strokeColor=none;fillColor=none;" vertex="1" parent="1">
          <mxGeometry x="301" y="338" width="60" height="30" as="geometry" />
        </mxCell>
        <mxCell id="eLDP0qVDCVmEM5Waib8o-35" value="&lt;font style=&quot;font-size: 14px;&quot;&gt;$$C&#39;$$&lt;/font&gt;" style="text;html=1;align=center;verticalAlign=middle;resizable=0;points=[];autosize=1;strokeColor=none;fillColor=none;" vertex="1" parent="1">
          <mxGeometry x="537" y="335" width="70" height="30" as="geometry" />
        </mxCell>
      </root>
    </mxGraphModel>
  </diagram>
  <diagram id="vsrqS6svW17sEvwL1MF_" name="第 11 页">
    <mxGraphModel dx="454" dy="281" grid="1" gridSize="10" guides="1" tooltips="1" connect="1" arrows="1" fold="1" page="1" pageScale="1" pageWidth="827" pageHeight="1169" math="1" shadow="0">
      <root>
        <mxCell id="0" />
        <mxCell id="1" parent="0" />
        <mxCell id="w8VGENOD6V-uCqFgyT7h-16" value="$$K_{13}$$" style="text;html=1;align=center;verticalAlign=middle;resizable=0;points=[];autosize=1;strokeColor=none;fillColor=none;" vertex="1" parent="1">
          <mxGeometry x="190" y="318" width="90" height="30" as="geometry" />
        </mxCell>
        <mxCell id="w8VGENOD6V-uCqFgyT7h-15" value="$$K_{12}$$" style="text;html=1;align=center;verticalAlign=middle;resizable=0;points=[];autosize=1;strokeColor=none;fillColor=none;" vertex="1" parent="1">
          <mxGeometry x="160" y="318" width="90" height="30" as="geometry" />
        </mxCell>
        <mxCell id="w8VGENOD6V-uCqFgyT7h-19" value="$$K_{14}$$" style="text;html=1;align=center;verticalAlign=middle;resizable=0;points=[];autosize=1;strokeColor=none;fillColor=none;" vertex="1" parent="1">
          <mxGeometry x="220" y="318" width="90" height="30" as="geometry" />
        </mxCell>
        <mxCell id="w8VGENOD6V-uCqFgyT7h-18" value="$$K_{15}$$" style="text;html=1;align=center;verticalAlign=middle;resizable=0;points=[];autosize=1;strokeColor=none;fillColor=none;" vertex="1" parent="1">
          <mxGeometry x="250" y="318" width="90" height="30" as="geometry" />
        </mxCell>
        <mxCell id="w8VGENOD6V-uCqFgyT7h-20" value="$$K_{16}$$" style="text;html=1;align=center;verticalAlign=middle;resizable=0;points=[];autosize=1;strokeColor=none;fillColor=none;" vertex="1" parent="1">
          <mxGeometry x="280" y="318" width="90" height="30" as="geometry" />
        </mxCell>
        <mxCell id="w8VGENOD6V-uCqFgyT7h-14" value="$$K_{11}$$" style="text;html=1;align=center;verticalAlign=middle;resizable=0;points=[];autosize=1;strokeColor=none;fillColor=none;" vertex="1" parent="1">
          <mxGeometry x="130" y="318" width="90" height="30" as="geometry" />
        </mxCell>
        <mxCell id="w8VGENOD6V-uCqFgyT7h-7" value="$$u_{x,2}$$" style="text;html=1;align=center;verticalAlign=middle;resizable=0;points=[];autosize=1;strokeColor=none;fillColor=none;" vertex="1" parent="1">
          <mxGeometry x="220" y="294" width="90" height="30" as="geometry" />
        </mxCell>
        <mxCell id="w8VGENOD6V-uCqFgyT7h-2" value="$$u_{y,1}$$" style="text;html=1;align=center;verticalAlign=middle;resizable=0;points=[];autosize=1;strokeColor=none;fillColor=none;" vertex="1" parent="1">
          <mxGeometry x="160" y="294" width="90" height="30" as="geometry" />
        </mxCell>
        <mxCell id="w8VGENOD6V-uCqFgyT7h-3" value="$$u_{z,1}$$" style="text;html=1;align=center;verticalAlign=middle;resizable=0;points=[];autosize=1;strokeColor=none;fillColor=none;" vertex="1" parent="1">
          <mxGeometry x="190" y="294" width="90" height="30" as="geometry" />
        </mxCell>
        <mxCell id="w8VGENOD6V-uCqFgyT7h-1" value="$$u_{x,1}$$" style="text;html=1;align=center;verticalAlign=middle;resizable=0;points=[];autosize=1;strokeColor=none;fillColor=none;" vertex="1" parent="1">
          <mxGeometry x="130" y="294" width="90" height="30" as="geometry" />
        </mxCell>
        <mxCell id="w8VGENOD6V-uCqFgyT7h-8" value="$$u_{x,1}$$" style="text;html=1;align=center;verticalAlign=middle;resizable=0;points=[];autosize=1;strokeColor=none;fillColor=none;" vertex="1" parent="1">
          <mxGeometry x="100" y="315" width="90" height="30" as="geometry" />
        </mxCell>
        <mxCell id="w8VGENOD6V-uCqFgyT7h-9" value="$$u_{y,1}$$" style="text;html=1;align=center;verticalAlign=middle;resizable=0;points=[];autosize=1;strokeColor=none;fillColor=none;" vertex="1" parent="1">
          <mxGeometry x="100" y="335" width="90" height="30" as="geometry" />
        </mxCell>
        <mxCell id="w8VGENOD6V-uCqFgyT7h-10" value="$$u_{z,1}$$" style="text;html=1;align=center;verticalAlign=middle;resizable=0;points=[];autosize=1;strokeColor=none;fillColor=none;" vertex="1" parent="1">
          <mxGeometry x="100" y="355" width="90" height="30" as="geometry" />
        </mxCell>
        <mxCell id="w8VGENOD6V-uCqFgyT7h-11" value="$$u_{x,1}$$" style="text;html=1;align=center;verticalAlign=middle;resizable=0;points=[];autosize=1;strokeColor=none;fillColor=none;" vertex="1" parent="1">
          <mxGeometry x="100" y="375" width="90" height="30" as="geometry" />
        </mxCell>
        <mxCell id="w8VGENOD6V-uCqFgyT7h-12" value="$$u_{y,1}$$" style="text;html=1;align=center;verticalAlign=middle;resizable=0;points=[];autosize=1;strokeColor=none;fillColor=none;" vertex="1" parent="1">
          <mxGeometry x="100" y="395" width="90" height="30" as="geometry" />
        </mxCell>
        <mxCell id="w8VGENOD6V-uCqFgyT7h-13" value="$$u_{z,1}$$" style="text;html=1;align=center;verticalAlign=middle;resizable=0;points=[];autosize=1;strokeColor=none;fillColor=none;" vertex="1" parent="1">
          <mxGeometry x="100" y="415" width="90" height="30" as="geometry" />
        </mxCell>
        <mxCell id="w8VGENOD6V-uCqFgyT7h-6" value="$$u_{z,2}$$" style="text;html=1;align=center;verticalAlign=middle;resizable=0;points=[];autosize=1;strokeColor=none;fillColor=none;" vertex="1" parent="1">
          <mxGeometry x="280" y="294" width="90" height="30" as="geometry" />
        </mxCell>
        <mxCell id="w8VGENOD6V-uCqFgyT7h-5" value="$$u_{y,2}$$" style="text;html=1;align=center;verticalAlign=middle;resizable=0;points=[];autosize=1;strokeColor=none;fillColor=none;" vertex="1" parent="1">
          <mxGeometry x="250" y="294" width="90" height="30" as="geometry" />
        </mxCell>
        <mxCell id="w8VGENOD6V-uCqFgyT7h-21" value="$$K_{13}$$" style="text;html=1;align=center;verticalAlign=middle;resizable=0;points=[];autosize=1;strokeColor=none;fillColor=none;" vertex="1" parent="1">
          <mxGeometry x="190" y="338" width="90" height="30" as="geometry" />
        </mxCell>
        <mxCell id="w8VGENOD6V-uCqFgyT7h-22" value="$$K_{12}$$" style="text;html=1;align=center;verticalAlign=middle;resizable=0;points=[];autosize=1;strokeColor=none;fillColor=none;" vertex="1" parent="1">
          <mxGeometry x="160" y="338" width="90" height="30" as="geometry" />
        </mxCell>
        <mxCell id="w8VGENOD6V-uCqFgyT7h-23" value="$$K_{14}$$" style="text;html=1;align=center;verticalAlign=middle;resizable=0;points=[];autosize=1;strokeColor=none;fillColor=none;" vertex="1" parent="1">
          <mxGeometry x="220" y="338" width="90" height="30" as="geometry" />
        </mxCell>
        <mxCell id="w8VGENOD6V-uCqFgyT7h-24" value="$$K_{15}$$" style="text;html=1;align=center;verticalAlign=middle;resizable=0;points=[];autosize=1;strokeColor=none;fillColor=none;" vertex="1" parent="1">
          <mxGeometry x="250" y="338" width="90" height="30" as="geometry" />
        </mxCell>
        <mxCell id="w8VGENOD6V-uCqFgyT7h-25" value="$$K_{16}$$" style="text;html=1;align=center;verticalAlign=middle;resizable=0;points=[];autosize=1;strokeColor=none;fillColor=none;" vertex="1" parent="1">
          <mxGeometry x="280" y="338" width="90" height="30" as="geometry" />
        </mxCell>
        <mxCell id="w8VGENOD6V-uCqFgyT7h-26" value="$$K_{11}$$" style="text;html=1;align=center;verticalAlign=middle;resizable=0;points=[];autosize=1;strokeColor=none;fillColor=none;" vertex="1" parent="1">
          <mxGeometry x="130" y="338" width="90" height="30" as="geometry" />
        </mxCell>
        <mxCell id="w8VGENOD6V-uCqFgyT7h-27" value="$$K_{13}$$" style="text;html=1;align=center;verticalAlign=middle;resizable=0;points=[];autosize=1;strokeColor=none;fillColor=none;" vertex="1" parent="1">
          <mxGeometry x="190" y="358" width="90" height="30" as="geometry" />
        </mxCell>
        <mxCell id="w8VGENOD6V-uCqFgyT7h-28" value="$$K_{12}$$" style="text;html=1;align=center;verticalAlign=middle;resizable=0;points=[];autosize=1;strokeColor=none;fillColor=none;" vertex="1" parent="1">
          <mxGeometry x="160" y="358" width="90" height="30" as="geometry" />
        </mxCell>
        <mxCell id="w8VGENOD6V-uCqFgyT7h-29" value="$$K_{14}$$" style="text;html=1;align=center;verticalAlign=middle;resizable=0;points=[];autosize=1;strokeColor=none;fillColor=none;" vertex="1" parent="1">
          <mxGeometry x="220" y="358" width="90" height="30" as="geometry" />
        </mxCell>
        <mxCell id="w8VGENOD6V-uCqFgyT7h-30" value="$$K_{15}$$" style="text;html=1;align=center;verticalAlign=middle;resizable=0;points=[];autosize=1;strokeColor=none;fillColor=none;" vertex="1" parent="1">
          <mxGeometry x="250" y="358" width="90" height="30" as="geometry" />
        </mxCell>
        <mxCell id="w8VGENOD6V-uCqFgyT7h-31" value="$$K_{16}$$" style="text;html=1;align=center;verticalAlign=middle;resizable=0;points=[];autosize=1;strokeColor=none;fillColor=none;" vertex="1" parent="1">
          <mxGeometry x="280" y="358" width="90" height="30" as="geometry" />
        </mxCell>
        <mxCell id="w8VGENOD6V-uCqFgyT7h-32" value="$$K_{11}$$" style="text;html=1;align=center;verticalAlign=middle;resizable=0;points=[];autosize=1;strokeColor=none;fillColor=none;" vertex="1" parent="1">
          <mxGeometry x="130" y="358" width="90" height="30" as="geometry" />
        </mxCell>
        <mxCell id="w8VGENOD6V-uCqFgyT7h-33" value="$$K_{13}$$" style="text;html=1;align=center;verticalAlign=middle;resizable=0;points=[];autosize=1;strokeColor=none;fillColor=none;" vertex="1" parent="1">
          <mxGeometry x="190" y="378" width="90" height="30" as="geometry" />
        </mxCell>
        <mxCell id="w8VGENOD6V-uCqFgyT7h-34" value="$$K_{12}$$" style="text;html=1;align=center;verticalAlign=middle;resizable=0;points=[];autosize=1;strokeColor=none;fillColor=none;" vertex="1" parent="1">
          <mxGeometry x="160" y="378" width="90" height="30" as="geometry" />
        </mxCell>
        <mxCell id="w8VGENOD6V-uCqFgyT7h-35" value="$$K_{14}$$" style="text;html=1;align=center;verticalAlign=middle;resizable=0;points=[];autosize=1;strokeColor=none;fillColor=none;" vertex="1" parent="1">
          <mxGeometry x="220" y="378" width="90" height="30" as="geometry" />
        </mxCell>
        <mxCell id="w8VGENOD6V-uCqFgyT7h-36" value="$$K_{15}$$" style="text;html=1;align=center;verticalAlign=middle;resizable=0;points=[];autosize=1;strokeColor=none;fillColor=none;" vertex="1" parent="1">
          <mxGeometry x="250" y="378" width="90" height="30" as="geometry" />
        </mxCell>
        <mxCell id="w8VGENOD6V-uCqFgyT7h-37" value="$$K_{16}$$" style="text;html=1;align=center;verticalAlign=middle;resizable=0;points=[];autosize=1;strokeColor=none;fillColor=none;" vertex="1" parent="1">
          <mxGeometry x="280" y="378" width="90" height="30" as="geometry" />
        </mxCell>
        <mxCell id="w8VGENOD6V-uCqFgyT7h-38" value="$$K_{11}$$" style="text;html=1;align=center;verticalAlign=middle;resizable=0;points=[];autosize=1;strokeColor=none;fillColor=none;" vertex="1" parent="1">
          <mxGeometry x="130" y="378" width="90" height="30" as="geometry" />
        </mxCell>
        <mxCell id="w8VGENOD6V-uCqFgyT7h-39" value="$$K_{13}$$" style="text;html=1;align=center;verticalAlign=middle;resizable=0;points=[];autosize=1;strokeColor=none;fillColor=none;" vertex="1" parent="1">
          <mxGeometry x="190" y="398" width="90" height="30" as="geometry" />
        </mxCell>
        <mxCell id="w8VGENOD6V-uCqFgyT7h-40" value="$$K_{12}$$" style="text;html=1;align=center;verticalAlign=middle;resizable=0;points=[];autosize=1;strokeColor=none;fillColor=none;" vertex="1" parent="1">
          <mxGeometry x="160" y="398" width="90" height="30" as="geometry" />
        </mxCell>
        <mxCell id="w8VGENOD6V-uCqFgyT7h-41" value="$$K_{14}$$" style="text;html=1;align=center;verticalAlign=middle;resizable=0;points=[];autosize=1;strokeColor=none;fillColor=none;" vertex="1" parent="1">
          <mxGeometry x="220" y="398" width="90" height="30" as="geometry" />
        </mxCell>
        <mxCell id="w8VGENOD6V-uCqFgyT7h-42" value="$$K_{15}$$" style="text;html=1;align=center;verticalAlign=middle;resizable=0;points=[];autosize=1;strokeColor=none;fillColor=none;" vertex="1" parent="1">
          <mxGeometry x="250" y="398" width="90" height="30" as="geometry" />
        </mxCell>
        <mxCell id="w8VGENOD6V-uCqFgyT7h-43" value="$$K_{16}$$" style="text;html=1;align=center;verticalAlign=middle;resizable=0;points=[];autosize=1;strokeColor=none;fillColor=none;" vertex="1" parent="1">
          <mxGeometry x="280" y="398" width="90" height="30" as="geometry" />
        </mxCell>
        <mxCell id="w8VGENOD6V-uCqFgyT7h-44" value="$$K_{11}$$" style="text;html=1;align=center;verticalAlign=middle;resizable=0;points=[];autosize=1;strokeColor=none;fillColor=none;" vertex="1" parent="1">
          <mxGeometry x="130" y="398" width="90" height="30" as="geometry" />
        </mxCell>
        <mxCell id="w8VGENOD6V-uCqFgyT7h-45" value="$$K_{13}$$" style="text;html=1;align=center;verticalAlign=middle;resizable=0;points=[];autosize=1;strokeColor=none;fillColor=none;" vertex="1" parent="1">
          <mxGeometry x="190" y="418" width="90" height="30" as="geometry" />
        </mxCell>
        <mxCell id="w8VGENOD6V-uCqFgyT7h-46" value="$$K_{12}$$" style="text;html=1;align=center;verticalAlign=middle;resizable=0;points=[];autosize=1;strokeColor=none;fillColor=none;" vertex="1" parent="1">
          <mxGeometry x="160" y="418" width="90" height="30" as="geometry" />
        </mxCell>
        <mxCell id="w8VGENOD6V-uCqFgyT7h-47" value="$$K_{14}$$" style="text;html=1;align=center;verticalAlign=middle;resizable=0;points=[];autosize=1;strokeColor=none;fillColor=none;" vertex="1" parent="1">
          <mxGeometry x="220" y="418" width="90" height="30" as="geometry" />
        </mxCell>
        <mxCell id="w8VGENOD6V-uCqFgyT7h-48" value="$$K_{15}$$" style="text;html=1;align=center;verticalAlign=middle;resizable=0;points=[];autosize=1;strokeColor=none;fillColor=none;" vertex="1" parent="1">
          <mxGeometry x="250" y="418" width="90" height="30" as="geometry" />
        </mxCell>
        <mxCell id="w8VGENOD6V-uCqFgyT7h-49" value="$$K_{16}$$" style="text;html=1;align=center;verticalAlign=middle;resizable=0;points=[];autosize=1;strokeColor=none;fillColor=none;" vertex="1" parent="1">
          <mxGeometry x="280" y="418" width="90" height="30" as="geometry" />
        </mxCell>
        <mxCell id="w8VGENOD6V-uCqFgyT7h-50" value="$$K_{11}$$" style="text;html=1;align=center;verticalAlign=middle;resizable=0;points=[];autosize=1;strokeColor=none;fillColor=none;" vertex="1" parent="1">
          <mxGeometry x="130" y="418" width="90" height="30" as="geometry" />
        </mxCell>
      </root>
    </mxGraphModel>
  </diagram>
</mxfile>
